<?xml version="1.0" encoding="UTF-8"?>
<svg id="Layer_1" data-name="Layer 1" xmlns="http://www.w3.org/2000/svg" viewBox="0 0 283.5 218.6">
  <defs>
    <style>
      .cls-1, .cls-2 {
        stroke: #231f20;
        stroke-linejoin: round;
        stroke-width: 2.1px;
      }

      .cls-1, .cls-3 {
        fill: #fff;
      }

      .cls-2, .cls-4 {
        fill: #231f20;
      }

      .cls-5 {
        fill: #1c75bc;
      }

      .cls-5, .cls-4, .cls-6, .cls-3, .cls-7 {
        stroke-width: 0px;
      }

      .cls-6 {
        fill: #a7a9ac;
      }

      .cls-7 {
        fill: #f6c36c;
      }
    </style>
  </defs>
  <path class="cls-1" d="m282.2,138l-123.3,79.5v-40.6l121.3-78.2c.9-.6,2.1,0,2.1,1.1v38.1Z"/>
  <polygon class="cls-1" points="274.6 88.5 151.3 165 2.3 75.2 131.7 1.1 274.6 88.5"/>
  <path class="cls-1" d="m143.6,124.5h144.5c.8,0,1.5.7,1.5,1.5v13c0,0,0,.2-.2.2h-145.7v-14.6h0Z" transform="translate(-36.9 136.2) rotate(-32.3)"/>
  <polygon class="cls-1" points="151 164.8 158.7 176.8 158 217.4 1.2 123.3 2 75.3 151 164.8"/>
  <polygon class="cls-7" points="88.2 167.4 7.3 119 7.4 87.5 88.3 135.7 88.2 167.4"/>
  <g>
    <polygon class="cls-4" points="64.3 126.6 64.2 149.4 48.8 140.1 48.9 117.4 50.6 118.4 50.6 117.4 52.2 118.3 52.2 117.4 61 122.7 61 123.6 62.6 124.5 62.6 125.6 64.3 126.6"/>
    <polygon class="cls-3" points="62.7 131.4 50.2 139.4 62.7 146.3 62.7 131.4"/>
  </g>
  <g>
    <polygon class="cls-4" points="26.6 103 26.5 125.8 11.1 116.5 11.2 93.8 12.9 94.8 12.9 93.8 14.5 94.7 14.5 93.8 23.3 99.1 23.3 100 24.9 100.9 24.9 102 26.6 103"/>
    <polygon class="cls-3" points="25 107.8 12.5 115.8 25 122.7 25 107.8"/>
  </g>
  <g>
    <polygon class="cls-4" points="45.5 115 45.4 137.8 29.9 128.5 30 105.7 31.8 106.8 31.8 105.7 33.3 106.6 33.3 105.7 42.2 111 42.2 111.9 43.7 112.9 43.7 113.9 45.5 115"/>
    <polygon class="cls-3" points="43.8 119.8 31.3 127.8 43.9 134.7 43.8 119.8"/>
  </g>
  <g>
    <polygon class="cls-4" points="82.9 137.6 82.8 160.4 67.3 151.1 67.4 128.3 69.2 129.4 69.2 128.3 70.7 129.2 70.7 128.3 79.6 133.6 79.6 134.5 81.1 135.5 81.1 136.5 82.9 137.6"/>
    <polygon class="cls-3" points="81.2 142.4 68.7 150.4 81.3 157.3 81.2 142.4"/>
  </g>
  <g>
    <polygon class="cls-5" points="114.8 183.2 92.9 170 92.9 138.4 115.1 150.9 114.8 183.2"/>
    <g>
      <polygon class="cls-4" points="111.7 154.3 111.7 177 96.2 167.8 96.2 145 98 146.1 98 145 99.5 146 99.5 145 108.4 150.3 108.4 151.2 110 152.1 110 153.2 111.7 154.3"/>
      <polygon class="cls-3" points="110.1 159.1 97.6 167.1 110.2 173.9 110.1 159.1"/>
    </g>
  </g>
  <path class="cls-2" d="m146.6,198.5l-11.6-7.3c0,0-.1-.2-.1-.3v-21.2c0-.3.3-.4.5-.3l11.6,7.3c0,0,.1.2.1.3v21.2c0,.3-.3.4-.5.3Z"/>
  <ellipse class="cls-2" cx="124.9" cy="175.3" rx="2.6" ry="6"/>
  <g>
    <circle class="cls-4" cx="211.6" cy="76.6" r="3.6"/>
    <circle class="cls-4" cx="203.4" cy="71.8" r="3.6"/>
    <circle class="cls-4" cx="195.2" cy="67" r="3.6"/>
    <circle class="cls-4" cx="187.1" cy="62.2" r="3.6"/>
    <circle class="cls-4" cx="178.9" cy="57.3" r="3.6"/>
    <circle class="cls-4" cx="170.7" cy="52.5" r="3.6"/>
    <circle class="cls-4" cx="154.3" cy="42.9" r="3.6"/>
    <circle class="cls-4" cx="162.5" cy="47.7" r="3.6"/>
  </g>
  <g>
    <ellipse class="cls-6" cx="262.2" cy="131" rx="9.9" ry="11.6"/>
    <ellipse class="cls-1" cx="262.2" cy="131" rx="7.2" ry="8.5"/>
  </g>
  <g>
    <ellipse class="cls-7" cx="180.5" cy="184" rx="9.9" ry="11.6"/>
    <ellipse class="cls-1" cx="180.5" cy="184" rx="7.2" ry="8.5"/>
  </g>
</svg>