<?xml version="1.0" encoding="UTF-8"?>
<svg id="Layer_1" data-name="Layer 1" xmlns="http://www.w3.org/2000/svg" viewBox="0 0 173.2 270.3">
  <defs>
    <style>
      .cls-1, .cls-2 {
        stroke: #231f20;
        stroke-width: .9px;
      }

      .cls-1, .cls-2, .cls-3, .cls-4 {
        stroke-miterlimit: 10;
      }

      .cls-1, .cls-3, .cls-4, .cls-5 {
        fill: #fff;
      }

      .cls-2, .cls-6 {
        fill: #231f20;
      }

      .cls-3 {
        stroke: #010101;
      }

      .cls-3, .cls-4 {
        stroke-width: .9px;
      }

      .cls-4 {
        stroke: #221f1f;
      }

      .cls-7 {
        fill: #1c75bc;
      }

      .cls-7, .cls-6, .cls-8, .cls-5, .cls-9 {
        stroke-width: 0px;
      }

      .cls-8 {
        fill: #a7a9ac;
      }

      .cls-9 {
        fill: #f6c36c;
      }
    </style>
  </defs>
  <g>
    <path class="cls-3" d="m9.5,41.4l2.5,113.5c-.8,0-1.7.1-2.5.1-1.7,0-3.4-.1-5.1-.4.9-37.7,2.8-75.3,3.1-113,0-.8.4-1.4,1-1.4s1,.6,1,1.4Z"/>
    <path class="cls-3" d="m18.7,25.4v128.2c-.6.2-1.3.4-2,.5V25.4c0-3.5-2.8-6.3-6.3-6.3h2c3.5,0,6.3,2.8,6.3,6.3Z"/>
    <path class="cls-3" d="m16.7,25.4v128.7c-1.5.4-3.1.6-4.7.8l-2.5-113.5c0-.8-.5-1.4-1-1.4s-1,.6-1,1.4c-.3,37.8-2.2,75.4-3.1,113-.7-.1-1.4-.3-2.1-.4-.7-.2-1.3-.3-2-.5V25.4c0-3.5,2.8-6.3,6.3-6.3h3.8c3.5,0,6.3,2.8,6.3,6.3Z"/>
    <path class="cls-3" d="m12,154.8c-.8,0-1.7.1-2.5.1-1.7,0-3.4-.1-5.1-.4.9-37.7,2.8-75.3,3.1-113,0-.8.4-1.4,1-1.4s1,.6,1,1.4l2.5,113.5Z"/>
    <path class="cls-3" d="m12,154.8c-.8,0-1.7.1-2.5.1-1.7,0-3.4-.1-5.1-.4.9-37.7,2.8-75.3,3.1-113,0-.8.4-1.4,1-1.4s1,.6,1,1.4l2.5,113.5Z"/>
  </g>
  <path class="cls-4" d="m18.7,153.5v34.7c0,2.3-1.9,4.2-4.3,4.2H4.4c-2.2,0-4.1-1.8-4.1-3.9v-34.9c.6.2,1.3.4,2,.5.7.2,1.4.3,2.1.4,1.7.3,3.4.4,5.1.4s1.7,0,2.5-.1c1.6-.1,3.1-.4,4.7-.8.7-.2,1.3-.3,2-.5Z"/>
  <g>
    <path class="cls-3" d="m45.4,22.8l2.5,113.5c-.8,0-1.7.1-2.5.1-1.7,0-3.4-.1-5.1-.4.9-37.7,2.8-75.3,3.1-113,0-.8.5-1.5,1-1.5s1,.6,1,1.4Z"/>
    <path class="cls-3" d="m54.5,6.8v128.2c-.6.2-1.3.4-2,.5V6.8c0-3.5-2.8-6.3-6.3-6.3h2c3.5,0,6.3,2.8,6.3,6.3Z"/>
    <path class="cls-3" d="m52.6,6.8v128.7c-1.5.4-3.1.6-4.7.8l-2.5-113.5c0-.8-.5-1.4-1-1.4s-1,.7-1,1.5c-.3,37.8-2.2,75.4-3.1,113-.7-.1-1.4-.3-2.1-.4-.7-.2-1.3-.3-2-.5V6.8c0-3.5,2.8-6.3,6.3-6.3h3.8c3.5,0,6.3,2.8,6.3,6.3Z"/>
    <path class="cls-3" d="m47.9,136.2c-.8,0-1.7.1-2.5.1-1.7,0-3.4-.1-5.1-.4.9-37.7,2.8-75.3,3.1-113,0-.8.5-1.5,1-1.5s1,.6,1,1.4l2.5,113.5Z"/>
    <path class="cls-3" d="m47.9,136.2c-.8,0-1.7.1-2.5.1-1.7,0-3.4-.1-5.1-.4.9-37.7,2.8-75.3,3.1-113,0-.8.5-1.5,1-1.5s1,.6,1,1.4l2.5,113.5Z"/>
  </g>
  <path class="cls-4" d="m54.5,134.9v34.7c0,2.3-1.9,4.2-4.3,4.2h-9.9c-2.2,0-4.1-1.8-4.1-3.9v-34.9c.6.2,1.3.4,2,.5.7.2,1.4.3,2.1.4,1.7.3,3.4.4,5.1.4s1.7,0,2.5-.1c1.6-.1,3.1-.4,4.7-.8.7-.2,1.3-.3,2-.5Z"/>
  <path class="cls-1" d="m157.4,230.5l-61.7,39.8v-20.3l60.7-39.1c.4-.3,1,0,1,.6v19Z"/>
  <circle class="cls-8" cx="146.7" cy="230.3" r="8.1"/>
  <path class="cls-1" d="m154.1,220.8h0c4,0,7.2,3.2,7.2,7.2v19c0,.7-.5,1.2-1.2,1.2h-11.9c-.7,0-1.2-.5-1.2-1.2v-19c0-4,3.2-7.2,7.2-7.2Z" transform="translate(-126.1 250.7) rotate(-60)"/>
  <path class="cls-1" d="m20.4,177h0c4,0,7.2,3.2,7.2,7.2v19c0,.7-.5,1.2-1.2,1.2h-11.9c-.7,0-1.2-.5-1.2-1.2v-19c0-4,3.2-7.2,7.2-7.2Z" transform="translate(-154.9 113) rotate(-60)"/>
  <path class="cls-1" d="m55.7,158h0c4,0,7.2,3.2,7.2,7.2v19c0,.7-.5,1.2-1.2,1.2h-11.9c-.7,0-1.2-.5-1.2-1.2v-19c0-4,3.2-7.2,7.2-7.2Z" transform="translate(-120.9 134.1) rotate(-60)"/>
  <polygon class="cls-1" points="153.6 205.7 91.9 244 17.4 199.1 82.1 162 153.6 205.7"/>
  <path class="cls-1" d="m88.1,223.7h71.5c.8,0,1.5.7,1.5,1.5v4.4c0,.8-.7,1.5-1.5,1.5h-71.5v-7.3h0Z" transform="translate(-102.3 101.8) rotate(-32.3)"/>
  <polygon class="cls-1" points="91.8 243.9 95.6 249.9 95.3 270.2 16.9 223.1 17.3 199.1 91.8 243.9"/>
  <polygon class="cls-9" points="60.4 245.2 19.9 221 20 205.2 60.4 229.4 60.4 245.2"/>
  <g>
    <polygon class="cls-6" points="48.4 224.8 48.4 236.2 40.7 231.6 40.7 220.2 41.6 220.7 41.6 220.2 42.4 220.6 42.4 220.2 46.8 222.8 46.8 223.3 47.6 223.7 47.6 224.3 48.4 224.8"/>
    <polygon class="cls-5" points="47.6 227.2 41.4 231.2 47.6 234.6 47.6 227.2"/>
  </g>
  <g>
    <polygon class="cls-6" points="29.6 213 29.5 224.4 21.8 219.8 21.9 208.4 22.7 208.9 22.7 208.4 23.5 208.8 23.5 208.4 27.9 211 27.9 211.5 28.7 211.9 28.7 212.5 29.6 213"/>
    <polygon class="cls-5" points="28.8 215.4 22.5 219.4 28.8 222.8 28.8 215.4"/>
  </g>
  <g>
    <polygon class="cls-6" points="39 219 39 230.4 31.2 225.8 31.3 214.4 32.2 214.9 32.2 214.4 32.9 214.8 32.9 214.4 37.4 217 37.4 217.5 38.1 217.9 38.1 218.5 39 219"/>
    <polygon class="cls-5" points="38.2 221.4 31.9 225.4 38.2 228.8 38.2 221.4"/>
  </g>
  <g>
    <polygon class="cls-6" points="57.7 230.3 57.7 241.7 49.9 237 50 225.7 50.9 226.2 50.9 225.7 51.6 226.1 51.6 225.7 56.1 228.3 56.1 228.8 56.8 229.2 56.8 229.8 57.7 230.3"/>
    <polygon class="cls-5" points="56.9 232.7 50.6 236.7 56.9 240.1 56.9 232.7"/>
  </g>
  <g>
    <polygon class="cls-7" points="73.7 253.1 62.7 246.5 62.7 230.7 73.8 237 73.7 253.1"/>
    <g>
      <polygon class="cls-6" points="72.1 238.6 72.1 250 64.4 245.4 64.4 234 65.3 234.6 65.3 234 66.1 234.5 66.1 234 70.5 236.7 70.5 237.1 71.3 237.6 71.3 238.1 72.1 238.6"/>
      <polygon class="cls-5" points="71.3 241 65.1 245.1 71.4 248.5 71.3 241"/>
    </g>
  </g>
  <path class="cls-2" d="m89.6,260.8l-5.8-3.6s0,0,0-.1v-10.6c0-.1.1-.2.2-.1l5.8,3.6s0,0,0,.1v10.6c0,.1-.1.2-.2.1Z"/>
  <ellipse class="cls-2" cx="78.8" cy="249.1" rx="1.3" ry="3"/>
  <circle class="cls-9" cx="111.8" cy="251.9" r="8.8"/>
  <path class="cls-1" d="m119,241.8h0c4.1,0,7.5,3.3,7.5,7.5v19.8c0,.7-.6,1.3-1.3,1.3h-12.4c-.7,0-1.3-.6-1.3-1.3v-19.8c0-4.1,3.3-7.5,7.5-7.5Z" transform="translate(-162.2 231) rotate(-60)"/>
  <g>
    <circle class="cls-6" cx="122.1" cy="199.8" r="1.8"/>
    <circle class="cls-6" cx="118" cy="197.4" r="1.8"/>
    <circle class="cls-6" cx="113.9" cy="195" r="1.8"/>
    <circle class="cls-6" cx="109.8" cy="192.6" r="1.8"/>
    <circle class="cls-6" cx="105.7" cy="190.2" r="1.8"/>
    <circle class="cls-6" cx="101.6" cy="187.8" r="1.8"/>
    <circle class="cls-6" cx="93.4" cy="182.9" r="1.8"/>
    <circle class="cls-6" cx="97.5" cy="185.3" r="1.8"/>
  </g>
  <g>
    <path class="cls-3" d="m128.5,118.6l2.5,113.5c-.8,0-1.7.1-2.5.1-1.7,0-3.4-.1-5.1-.4.9-37.7,2.8-75.3,3.1-113,0-.8.4-1.4,1-1.4s1,.6,1,1.4Z"/>
    <path class="cls-3" d="m137.7,102.5v128.2c-.6.2-1.3.4-2,.5V102.5c0-3.5-2.8-6.3-6.3-6.3h2c3.5,0,6.3,2.8,6.3,6.3Z"/>
    <path class="cls-3" d="m135.7,102.5v128.7c-1.5.4-3.1.6-4.7.8l-2.5-113.5c0-.8-.5-1.4-1-1.4s-1,.6-1,1.4c-.3,37.8-2.2,75.4-3.1,113-.7-.1-1.4-.3-2.1-.4-.7-.2-1.3-.3-2-.5V102.5c0-3.5,2.8-6.3,6.3-6.3h3.8c3.5,0,6.3,2.8,6.3,6.3Z"/>
    <path class="cls-3" d="m131,232c-.8,0-1.7.1-2.5.1-1.7,0-3.4-.1-5.1-.4.9-37.7,2.8-75.3,3.1-113,0-.8.4-1.4,1-1.4s1,.6,1,1.4l2.5,113.5Z"/>
    <path class="cls-3" d="m131,232c-.8,0-1.7.1-2.5.1-1.7,0-3.4-.1-5.1-.4.9-37.7,2.8-75.3,3.1-113,0-.8.4-1.4,1-1.4s1,.6,1,1.4l2.5,113.5Z"/>
  </g>
  <path class="cls-4" d="m137.7,230.7v34.7c0,2.3-1.9,4.2-4.3,4.2h-9.9c-2.2,0-4.1-1.8-4.1-3.9v-34.9c.6.2,1.3.4,2,.5.7.2,1.4.3,2.1.4,1.7.3,3.4.4,5.1.4s1.7,0,2.5-.1c1.6-.1,3.1-.4,4.7-.8.7-.2,1.3-.3,2-.5Z"/>
  <g>
    <g>
      <path class="cls-3" d="m163.7,96.7l2.5,113.5c-.8,0-1.7.1-2.5.1-1.7,0-3.4-.1-5.1-.4.9-37.7,2.8-75.3,3.1-113,0-.8.5-1.5,1-1.5s1,.6,1,1.4Z"/>
      <path class="cls-3" d="m172.8,80.7v128.2c-.6.2-1.3.4-2,.5V80.7c0-3.5-2.8-6.3-6.3-6.3h2c3.5,0,6.3,2.8,6.3,6.3Z"/>
      <path class="cls-3" d="m170.9,80.7v128.7c-1.5.4-3.1.6-4.7.8l-2.5-113.5c0-.8-.5-1.4-1-1.4s-1,.7-1,1.5c-.3,37.8-2.2,75.4-3.1,113-.7-.1-1.4-.3-2.1-.4-.7-.2-1.3-.3-2-.5V80.7c0-3.5,2.8-6.3,6.3-6.3h3.8c3.5,0,6.3,2.8,6.3,6.3Z"/>
      <path class="cls-3" d="m166.2,210.2c-.8,0-1.7.1-2.5.1-1.7,0-3.4-.1-5.1-.4.9-37.7,2.8-75.3,3.1-113,0-.8.5-1.5,1-1.5s1,.6,1,1.4l2.5,113.5Z"/>
      <path class="cls-3" d="m166.2,210.2c-.8,0-1.7.1-2.5.1-1.7,0-3.4-.1-5.1-.4.9-37.7,2.8-75.3,3.1-113,0-.8.5-1.5,1-1.5s1,.6,1,1.4l2.5,113.5Z"/>
    </g>
    <path class="cls-4" d="m172.8,208.9v34.7c0,2.3-1.9,4.2-4.3,4.2h-9.9c-2.2,0-4.1-1.8-4.1-3.9v-34.9c.6.2,1.3.4,2,.5.7.2,1.4.3,2.1.4,1.7.3,3.4.4,5.1.4s1.7,0,2.5-.1c1.6-.1,3.1-.4,4.7-.8.7-.2,1.3-.3,2-.5Z"/>
  </g>
</svg>