<?xml version="1.0" encoding="UTF-8"?>
<svg id="Layer_1" data-name="Layer 1" xmlns="http://www.w3.org/2000/svg" viewBox="0 0 109.8 53.1">
  <defs>
    <style>
      .cls-1 {
        fill: none;
      }

      .cls-1, .cls-2, .cls-3, .cls-4 {
        stroke-width: .7px;
      }

      .cls-1, .cls-2, .cls-3, .cls-4, .cls-5, .cls-6 {
        stroke: #231f20;
        stroke-miterlimit: 10;
      }

      .cls-2 {
        fill: #17a3cc;
      }

      .cls-3, .cls-6 {
        fill: #fff;
      }

      .cls-4 {
        fill: #ed1c24;
      }

      .cls-5 {
        fill: #231f20;
      }

      .cls-5, .cls-6 {
        stroke-width: .4px;
      }

      .cls-7 {
        fill: #010101;
        stroke-width: 0px;
      }
    </style>
  </defs>
  <g>
    <rect class="cls-5" x="77.6" y="12.5" width="8.7" height="8.7" rx="4.2" ry="4.2"/>
    <rect class="cls-6" x="89.2" y="6" width="8.7" height="15.1" rx="4.2" ry="4.2"/>
    <rect class="cls-6" x="100.7" y=".4" width="8.7" height="20.8" rx="4.2" ry="4.2"/>
  </g>
  <g>
    <circle class="cls-2" cx="4.5" cy="38.7" r="4"/>
    <circle class="cls-2" cx="18.8" cy="38.7" r="4"/>
    <circle class="cls-3" cx="33" cy="38.7" r="4"/>
    <circle class="cls-3" cx="47.3" cy="38.7" r="4"/>
    <circle class="cls-3" cx="61.5" cy="38.7" r="4"/>
    <circle class="cls-3" cx="75.8" cy="38.7" r="4"/>
    <circle class="cls-4" cx="105.3" cy="38.7" r="4"/>
    <g>
      <circle class="cls-2" cx="90.6" cy="38.7" r="4"/>
      <g>
        <g>
          <line class="cls-1" x1="86" y1="29.3" x2="88.4" y2="33.1"/>
          <line class="cls-1" x1="95.1" y1="29.3" x2="92.7" y2="33.1"/>
        </g>
        <g>
          <line class="cls-1" x1="86" y1="48.1" x2="88.4" y2="44.4"/>
          <line class="cls-1" x1="95.1" y1="48.1" x2="92.7" y2="44.4"/>
        </g>
      </g>
    </g>
  </g>
  <g>
    <path class="cls-7" d="m18.1,26.7l-2.7-2.7c-.3-.3-.7-.3-1,0-.3.3-.3.7,0,1l1.2,1.2c.1.1,0,.4-.2.4h-4.3c-.4,0-.7.3-.7.6,0,.4.3.7.7.7h4.4c.2,0,.3.2.2.4l-1.2,1.2c-.3.3-.3.7,0,1,.3.3.7.3,1,0l2.7-2.7c.3-.3.3-.8,0-1.1Z"/>
    <path class="cls-7" d="m8.6,26.5h-.8c-.4,0-.7.3-.7.7s.3.7.7.7h.8c.4,0,.7-.3.7-.7s-.3-.7-.7-.7Z"/>
    <path class="cls-7" d="m5.5,26.5h0c-.4,0-.7.3-.7.7s.3.7.7.7h0c.4,0,.7-.3.7-.7s-.3-.7-.7-.7Z"/>
  </g>
  <g>
    <path class="cls-7" d="m5.4,49.1l2.7-2.7c.3-.3.7-.3,1,0,.3.3.3.7,0,1l-1.2,1.2c-.1.1,0,.4.2.4h4.3c.4,0,.7.3.7.6,0,.4-.3.7-.7.7h-4.4c-.2,0-.3.2-.2.4l1.2,1.2c.3.3.3.7,0,1-.3.3-.7.3-1,0l-2.7-2.7c-.3-.3-.3-.8,0-1.1Z"/>
    <path class="cls-7" d="m14.9,49h.8c.4,0,.7.3.7.7s-.3.7-.7.7h-.8c-.4,0-.7-.3-.7-.7s.3-.7.7-.7Z"/>
    <path class="cls-7" d="m18,49h0c.4,0,.7.3.7.7s-.3.7-.7.7h0c-.4,0-.7-.3-.7-.7s.3-.7.7-.7Z"/>
  </g>
</svg>