<?xml version="1.0" encoding="UTF-8"?>
<svg id="Layer_1" data-name="Layer 1" xmlns="http://www.w3.org/2000/svg" viewBox="0 0 111.4 47.7">
  <defs>
    <style>
      .cls-1 {
        fill: #ed1c24;
      }

      .cls-1, .cls-2, .cls-3, .cls-4, .cls-5 {
        stroke: #231f20;
        stroke-miterlimit: 10;
      }

      .cls-1, .cls-2, .cls-5 {
        stroke-width: .7px;
      }

      .cls-2 {
        fill: #17a3cc;
      }

      .cls-3 {
        fill: #fff;
        stroke-width: .4px;
      }

      .cls-4 {
        fill: #231f20;
        stroke-width: .7px;
      }

      .cls-5 {
        fill: none;
      }
    </style>
  </defs>
  <g>
    <circle class="cls-1" cx="106.3" cy="38.3" r="4"/>
    <g>
      <circle class="cls-2" cx="5.6" cy="38.1" r="4"/>
      <g>
        <g>
          <line class="cls-5" x1="1.1" y1="28.9" x2="3.5" y2="32.7"/>
          <line class="cls-5" x1="10.2" y1="28.9" x2="7.8" y2="32.7"/>
        </g>
        <g>
          <line class="cls-5" x1="1.1" y1="47.7" x2="3.5" y2="44"/>
          <line class="cls-5" x1="10.2" y1="47.7" x2="7.8" y2="44"/>
        </g>
      </g>
    </g>
    <g>
      <circle class="cls-2" cx="20.1" cy="38.4" r="4"/>
      <g>
        <g>
          <line class="cls-5" x1="15.5" y1="28.9" x2="18" y2="32.7"/>
          <line class="cls-5" x1="24.7" y1="28.9" x2="22.2" y2="32.7"/>
        </g>
        <g>
          <line class="cls-5" x1="15.5" y1="47.7" x2="18" y2="44"/>
          <line class="cls-5" x1="24.7" y1="47.7" x2="22.2" y2="44"/>
        </g>
      </g>
    </g>
    <g>
      <circle class="cls-2" cx="34.5" cy="38.3" r="4"/>
      <g>
        <g>
          <line class="cls-5" x1="30" y1="28.9" x2="32.4" y2="32.7"/>
          <line class="cls-5" x1="39.1" y1="28.9" x2="36.7" y2="32.7"/>
        </g>
        <g>
          <line class="cls-5" x1="30" y1="47.7" x2="32.4" y2="44"/>
          <line class="cls-5" x1="39.1" y1="47.7" x2="36.7" y2="44"/>
        </g>
      </g>
    </g>
    <g>
      <circle class="cls-2" cx="49" cy="38.3" r="4"/>
      <g>
        <g>
          <line class="cls-5" x1="44.4" y1="28.9" x2="46.9" y2="32.7"/>
          <line class="cls-5" x1="53.6" y1="28.9" x2="51.1" y2="32.7"/>
        </g>
        <g>
          <line class="cls-5" x1="44.4" y1="47.7" x2="46.9" y2="44"/>
          <line class="cls-5" x1="53.6" y1="47.7" x2="51.1" y2="44"/>
        </g>
      </g>
    </g>
    <g>
      <circle class="cls-2" cx="63.5" cy="38.3" r="4"/>
      <g>
        <g>
          <line class="cls-5" x1="58.9" y1="28.9" x2="61.3" y2="32.7"/>
          <line class="cls-5" x1="68" y1="28.9" x2="65.6" y2="32.7"/>
        </g>
        <g>
          <line class="cls-5" x1="58.9" y1="47.7" x2="61.3" y2="44"/>
          <line class="cls-5" x1="68" y1="47.7" x2="65.6" y2="44"/>
        </g>
      </g>
    </g>
    <g>
      <circle class="cls-2" cx="77.9" cy="38.3" r="4"/>
      <g>
        <g>
          <line class="cls-5" x1="73.3" y1="28.9" x2="75.8" y2="32.7"/>
          <line class="cls-5" x1="82.5" y1="28.9" x2="80" y2="32.7"/>
        </g>
        <g>
          <line class="cls-5" x1="73.3" y1="47.7" x2="75.8" y2="44"/>
          <line class="cls-5" x1="82.5" y1="47.7" x2="80" y2="44"/>
        </g>
      </g>
    </g>
    <g>
      <circle class="cls-2" cx="92.4" cy="38.3" r="4"/>
      <g>
        <g>
          <line class="cls-5" x1="87.8" y1="28.9" x2="90.2" y2="32.7"/>
          <line class="cls-5" x1="96.9" y1="28.9" x2="94.5" y2="32.7"/>
        </g>
        <g>
          <line class="cls-5" x1="87.8" y1="47.7" x2="90.2" y2="44"/>
          <line class="cls-5" x1="96.9" y1="47.7" x2="94.5" y2="44"/>
        </g>
      </g>
    </g>
  </g>
  <g>
    <g>
      <rect class="cls-3" x="79.5" y="11.7" width="8.4" height="8.4" rx="4.2" ry="4.2"/>
      <rect class="cls-3" x="90.7" y="5.5" width="8.4" height="14.7" rx="4.2" ry="4.2"/>
      <rect class="cls-3" x="101.9" y="0" width="8.4" height="20.2" rx="4.2" ry="4.2"/>
    </g>
    <g>
      <rect class="cls-4" x="85.2" y=".9" width="1.3" height="5.5" transform="translate(27.7 -59.6) rotate(45)"/>
      <rect class="cls-4" x="85.2" y=".9" width="1.3" height="5.5" transform="translate(22.6 61.8) rotate(-45)"/>
    </g>
  </g>
</svg>