<?xml version="1.0" encoding="UTF-8"?>
<svg id="Layer_1" data-name="Layer 1" xmlns="http://www.w3.org/2000/svg" viewBox="0 0 109.3 53.3">
  <defs>
    <style>
      .cls-1 {
        fill: #ed1c24;
      }

      .cls-1, .cls-2, .cls-3, .cls-4 {
        stroke: #231f20;
        stroke-miterlimit: 10;
      }

      .cls-1, .cls-2, .cls-4 {
        stroke-width: .7px;
      }

      .cls-2 {
        fill: #17a3cc;
      }

      .cls-3 {
        fill: #231f20;
        stroke-width: .4px;
      }

      .cls-4 {
        fill: none;
      }

      .cls-5 {
        fill: #010101;
        stroke-width: 0px;
      }
    </style>
  </defs>
  <g>
    <rect class="cls-3" x="77.9" y="12.1" width="8.4" height="8.4" rx="4.2" ry="4.2"/>
    <rect class="cls-3" x="89.1" y="5.8" width="8.4" height="14.7" rx="4.2" ry="4.2"/>
    <rect class="cls-3" x="100.3" y=".3" width="8.4" height="20.2" rx="4.2" ry="4.2"/>
  </g>
  <g>
    <circle class="cls-2" cx="4.5" cy="37.3" r="4"/>
    <circle class="cls-2" cx="18.7" cy="37.3" r="4"/>
    <circle class="cls-2" cx="32.8" cy="37.3" r="4"/>
    <circle class="cls-2" cx="47" cy="37.3" r="4"/>
    <circle class="cls-2" cx="61.2" cy="37.3" r="4"/>
    <circle class="cls-2" cx="75.3" cy="37.3" r="4"/>
    <circle class="cls-1" cx="104.7" cy="37.3" r="4"/>
    <g>
      <circle class="cls-2" cx="90" cy="37.3" r="4"/>
      <g>
        <g>
          <line class="cls-4" x1="85.5" y1="27.9" x2="87.9" y2="31.6"/>
          <line class="cls-4" x1="94.6" y1="27.9" x2="92.1" y2="31.6"/>
        </g>
        <g>
          <line class="cls-4" x1="85.5" y1="46.6" x2="87.9" y2="42.9"/>
          <line class="cls-4" x1="94.6" y1="46.6" x2="92.1" y2="42.9"/>
        </g>
      </g>
    </g>
  </g>
  <g>
    <path class="cls-5" d="m43,24.5l-2.6-2.6c-.3-.3-.7-.3-.9,0-.3.3-.3.7,0,1l1.2,1.2c.1.1,0,.4-.1.4h-4.2c-.4,0-.7.3-.7.6,0,.4.3.7.7.7h4.3c.2,0,.3.2.1.4l-1.1,1.1c-.3.3-.3.7,0,.9.3.3.7.3,1,0l2.6-2.6c.3-.3.3-.7,0-1Z"/>
    <path class="cls-5" d="m33.8,24.3h-.8c-.4,0-.7.3-.7.7s.3.7.7.7h.8c.4,0,.7-.3.7-.7s-.3-.7-.7-.7Z"/>
    <path class="cls-5" d="m30.8,24.3h0c-.4,0-.7.3-.7.7s.3.7.7.7h0c.4,0,.7-.3.7-.7s-.3-.7-.7-.7Z"/>
  </g>
  <g>
    <path class="cls-5" d="m18.3,24.1l-2.6-2.6c-.3-.3-.7-.3-.9,0-.3.3-.3.7,0,1l1.2,1.2c.1.1,0,.4-.1.4h-4.2c-.4,0-.7.3-.7.6,0,.4.3.7.7.7h4.3c.2,0,.3.2.1.4l-1.1,1.1c-.3.3-.3.7,0,.9.3.3.7.3,1,0l2.6-2.6c.3-.3.3-.7,0-1Z"/>
    <path class="cls-5" d="m9.1,23.9h-.8c-.4,0-.7.3-.7.7s.3.7.7.7h.8c.4,0,.7-.3.7-.7s-.3-.7-.7-.7Z"/>
    <path class="cls-5" d="m6.1,23.9h0c-.4,0-.7.3-.7.7s.3.7.7.7h0c.4,0,.7-.3.7-.7s-.3-.7-.7-.7Z"/>
  </g>
  <g>
    <path class="cls-5" d="m67.8,24.5l-2.6-2.6c-.3-.3-.7-.3-.9,0-.3.3-.3.7,0,1l1.2,1.2c.1.1,0,.4-.1.4h-4.2c-.4,0-.7.3-.7.6,0,.4.3.7.7.7h4.3c.2,0,.3.2.1.4l-1.1,1.1c-.3.3-.3.7,0,.9.3.3.7.3,1,0l2.6-2.6c.3-.3.3-.7,0-1Z"/>
    <path class="cls-5" d="m58.5,24.3h-.8c-.4,0-.7.3-.7.7s.3.7.7.7h.8c.4,0,.7-.3.7-.7s-.3-.7-.7-.7Z"/>
    <path class="cls-5" d="m55.5,24.3h0c-.4,0-.7.3-.7.7s.3.7.7.7h0c.4,0,.7-.3.7-.7s-.3-.7-.7-.7Z"/>
  </g>
  <g>
    <path class="cls-5" d="m29.2,49.4l2.6-2.6c.3-.3.7-.3.9,0,.3.3.3.7,0,1l-1.2,1.2c-.1.1,0,.4.1.4h4.2c.4,0,.7.3.7.6,0,.4-.3.7-.7.7h-4.3c-.2,0-.3.2-.1.4l1.1,1.1c.3.3.3.7,0,.9-.3.3-.7.3-1,0l-2.6-2.6c-.3-.3-.3-.7,0-1Z"/>
    <path class="cls-5" d="m38.4,49.3h.8c.4,0,.7.3.7.7s-.3.7-.7.7h-.8c-.4,0-.7-.3-.7-.7s.3-.7.7-.7Z"/>
    <path class="cls-5" d="m41.5,49.3h0c.4,0,.7.3.7.7s-.3.7-.7.7h0c-.4,0-.7-.3-.7-.7s.3-.7.7-.7Z"/>
  </g>
  <g>
    <path class="cls-5" d="m54,49.1l2.6-2.6c.3-.3.7-.3.9,0,.3.3.3.7,0,1l-1.2,1.2c-.1.1,0,.4.1.4h4.2c.4,0,.7.3.7.6,0,.4-.3.7-.7.7h-4.3c-.2,0-.3.2-.1.4l1.1,1.1c.3.3.3.7,0,.9-.3.3-.7.3-1,0l-2.6-2.6c-.3-.3-.3-.7,0-1Z"/>
    <path class="cls-5" d="m63.2,48.9h.8c.4,0,.7.3.7.7s-.3.7-.7.7h-.8c-.4,0-.7-.3-.7-.7s.3-.7.7-.7Z"/>
    <path class="cls-5" d="m66.2,48.9h0c.4,0,.7.3.7.7s-.3.7-.7.7h0c-.4,0-.7-.3-.7-.7s.3-.7.7-.7Z"/>
  </g>
  <g>
    <path class="cls-5" d="m4.5,49.4l2.6-2.6c.3-.3.7-.3.9,0,.3.3.3.7,0,1l-1.2,1.2c-.1.1,0,.4.1.4h4.2c.4,0,.7.3.7.6,0,.4-.3.7-.7.7h-4.3c-.2,0-.3.2-.1.4l1.1,1.1c.3.3.3.7,0,.9-.3.3-.7.3-1,0l-2.6-2.6c-.3-.3-.3-.7,0-1Z"/>
    <path class="cls-5" d="m13.7,49.3h.8c.4,0,.7.3.7.7s-.3.7-.7.7h-.8c-.4,0-.7-.3-.7-.7s.3-.7.7-.7Z"/>
    <path class="cls-5" d="m16.7,49.3h0c.4,0,.7.3.7.7s-.3.7-.7.7h0c-.4,0-.7-.3-.7-.7s.3-.7.7-.7Z"/>
  </g>
</svg>