<?xml version="1.0" encoding="UTF-8"?>
<svg id="Layer_1" data-name="Layer 1" xmlns="http://www.w3.org/2000/svg" viewBox="0 0 109.7 51.3">
  <defs>
    <style>
      .cls-1 {
        fill: none;
      }

      .cls-1, .cls-2, .cls-3, .cls-4, .cls-5, .cls-6 {
        stroke: #231f20;
        stroke-miterlimit: 10;
      }

      .cls-1, .cls-2, .cls-4, .cls-5 {
        stroke-width: .7px;
      }

      .cls-2 {
        fill: #17a3cc;
      }

      .cls-3, .cls-4 {
        fill: #fff;
      }

      .cls-3, .cls-6 {
        stroke-width: .4px;
      }

      .cls-5 {
        fill: #ed1c24;
      }

      .cls-6 {
        fill: #231f20;
      }

      .cls-7 {
        fill: #010101;
        stroke-width: 0px;
      }
    </style>
  </defs>
  <g>
    <rect class="cls-6" x="78.5" y="12" width="8.4" height="8.4" rx="4.2" ry="4.2"/>
    <rect class="cls-6" x="89.7" y="5.7" width="8.4" height="14.7" rx="4.2" ry="4.2"/>
    <rect class="cls-3" x="100.9" y=".2" width="8.4" height="20.2" rx="4.2" ry="4.2"/>
  </g>
  <g>
    <circle class="cls-2" cx="4.4" cy="37" r="4"/>
    <circle class="cls-2" cx="18.7" cy="37" r="4"/>
    <circle class="cls-2" cx="32.9" cy="37" r="4"/>
    <circle class="cls-2" cx="47.2" cy="37" r="4"/>
    <circle class="cls-4" cx="61.4" cy="37" r="4"/>
    <circle class="cls-4" cx="75.7" cy="37" r="4"/>
    <circle class="cls-5" cx="105.2" cy="37" r="4"/>
    <g>
      <circle class="cls-2" cx="90.5" cy="37" r="4"/>
      <g>
        <g>
          <line class="cls-1" x1="85.9" y1="27.6" x2="88.3" y2="31.4"/>
          <line class="cls-1" x1="95" y1="27.6" x2="92.6" y2="31.4"/>
        </g>
        <g>
          <line class="cls-1" x1="85.9" y1="46.4" x2="88.3" y2="42.7"/>
          <line class="cls-1" x1="95" y1="46.4" x2="92.6" y2="42.7"/>
        </g>
      </g>
    </g>
  </g>
  <g>
    <path class="cls-7" d="m20.4,24.5l-2.6-2.6c-.3-.3-.7-.3-.9,0-.3.3-.3.7,0,1l1.2,1.2c.1.1,0,.4-.1.4h-4.2c-.4,0-.7.3-.7.6,0,.4.3.7.7.7h4.3c.2,0,.3.2.1.4l-1.1,1.1c-.3.3-.3.7,0,.9.3.3.7.3,1,0l2.6-2.6c.3-.3.3-.7,0-1Z"/>
    <path class="cls-7" d="m11.2,24.4h-.8c-.4,0-.7.3-.7.7s.3.7.7.7h.8c.4,0,.7-.3.7-.7s-.3-.7-.7-.7Z"/>
    <path class="cls-7" d="m8.2,24.4h0c-.4,0-.7.3-.7.7s.3.7.7.7h0c.4,0,.7-.3.7-.7s-.3-.7-.7-.7Z"/>
  </g>
  <g>
    <path class="cls-7" d="m42.7,24.5l-2.6-2.6c-.3-.3-.7-.3-.9,0-.3.3-.3.7,0,1l1.2,1.2c.1.1,0,.4-.1.4h-4.2c-.4,0-.7.3-.7.6,0,.4.3.7.7.7h4.3c.2,0,.3.2.1.4l-1.1,1.1c-.3.3-.3.7,0,.9.3.3.7.3,1,0l2.6-2.6c.3-.3.3-.7,0-1Z"/>
    <path class="cls-7" d="m33.5,24.4h-.8c-.4,0-.7.3-.7.7s.3.7.7.7h.8c.4,0,.7-.3.7-.7s-.3-.7-.7-.7Z"/>
    <path class="cls-7" d="m30.5,24.4h0c-.4,0-.7.3-.7.7s.3.7.7.7h0c.4,0,.7-.3.7-.7s-.3-.7-.7-.7Z"/>
  </g>
  <g>
    <path class="cls-7" d="m31,47.3l2.6-2.6c.3-.3.7-.3.9,0,.3.3.3.7,0,1l-1.2,1.2c-.1.1,0,.4.1.4h4.2c.4,0,.7.3.7.6,0,.4-.3.7-.7.7h-4.3c-.2,0-.3.2-.1.4l1.1,1.1c.3.3.3.7,0,.9-.3.3-.7.3-1,0l-2.6-2.6c-.3-.3-.3-.7,0-1Z"/>
    <path class="cls-7" d="m40.2,47.2h.8c.4,0,.7.3.7.7s-.3.7-.7.7h-.8c-.4,0-.7-.3-.7-.7s.3-.7.7-.7Z"/>
    <path class="cls-7" d="m43.2,47.2h0c.4,0,.7.3.7.7s-.3.7-.7.7h0c-.4,0-.7-.3-.7-.7s.3-.7.7-.7Z"/>
  </g>
  <g>
    <path class="cls-7" d="m8.7,47.3l2.6-2.6c.3-.3.7-.3.9,0,.3.3.3.7,0,1l-1.2,1.2c-.1.1,0,.4.1.4h4.2c.4,0,.7.3.7.6,0,.4-.3.7-.7.7h-4.3c-.2,0-.3.2-.1.4l1.1,1.1c.3.3.3.7,0,.9-.3.3-.7.3-1,0l-2.6-2.6c-.3-.3-.3-.7,0-1Z"/>
    <path class="cls-7" d="m17.9,47.2h.8c.4,0,.7.3.7.7s-.3.7-.7.7h-.8c-.4,0-.7-.3-.7-.7s.3-.7.7-.7Z"/>
    <path class="cls-7" d="m20.9,47.2h0c.4,0,.7.3.7.7s-.3.7-.7.7h0c-.4,0-.7-.3-.7-.7s.3-.7.7-.7Z"/>
  </g>
</svg>