<?xml version="1.0" encoding="UTF-8"?>
<svg id="Layer_1" data-name="Layer 1" xmlns="http://www.w3.org/2000/svg" viewBox="0 0 81.5 102.5">
  <defs>
    <style>
      .cls-1 {
        fill: #fff;
      }

      .cls-1, .cls-2 {
        stroke: #231f20;
        stroke-miterlimit: 10;
      }

      .cls-2 {
        fill: none;
      }
    </style>
  </defs>
  <g>
    <path class="cls-1" d="m11.6,9.9v12.6c0,0,0,.1,0,.2,0,0,0,.1,0,.2l-1.5,7.7v3.8H2.1v-3.8l-1.5-7.7s0-.1,0-.2c0,0,0,0,0-.2v-12.6c0-.9.7-1.6,1.6-1.6h2.4V2c0-.9.7-1.6,1.6-1.6s1.6.7,1.6,1.6v6.3h2.4c.9,0,1.6.7,1.6,1.6Z"/>
    <polygon class="cls-1" points="5 28.8 4 24.1 8.1 24.1 7.1 28.8 5 28.8"/>
    <rect class="cls-1" x="3.7" y="11.5" width="4.7" height="9.4"/>
  </g>
  <path class="cls-1" d="m80.7,16c0,.9-.7,1.6-1.6,1.6h-6.3v1.6c0,.9-.7,1.6-1.6,1.6h-3.1v11c0,.9-.7,1.6-1.6,1.6h-4.7v39.3c0,16.5-13.4,29.9-29.9,29.9S2.1,89.1,2.1,72.6v-36.9h7.9v16.8c5.5-6,13.3-9.7,22-9.7s16.5,3.8,22,9.7v-19.2h-1.6c-2.6,0-4.7-2.1-4.7-4.7V6.6c0-2.6,2.1-4.7,4.7-4.7h14.1c.9,0,1.6.7,1.6,1.6v1.6h3.1c.9,0,1.6.7,1.6,1.6v1.6h6.3c.9,0,1.6.7,1.6,1.6s-.7,1.6-1.6,1.6h-6.3v3.1h6.3c.9,0,1.6.7,1.6,1.6Z"/>
  <circle class="cls-1" cx="32" cy="72.6" r="26.7"/>
  <path class="cls-1" d="m52.4,30.2c-.9,0-1.6-.7-1.6-1.6V6.6c0-.9.7-1.6,1.6-1.6h12.6v1.6s0,0,0,0,0,0,0,0v12.5s0,0,0,0,0,0,0,0v11h-12.6Z"/>
  <rect class="cls-1" x="68.1" y="8.2" width="1.6" height="9.4"/>
  <line class="cls-2" x1="9.5" y1="35.5" x2="1.6" y2="35.5"/>
</svg>