<?xml version="1.0" encoding="UTF-8"?>
<svg id="Layer_1" data-name="Layer 1" xmlns="http://www.w3.org/2000/svg" viewBox="0 0 283.5 283.5">
  <defs>
    <style>
      .cls-1, .cls-2, .cls-3, .cls-4, .cls-5, .cls-6, .cls-7 {
        stroke: #231f20;
      }

      .cls-1, .cls-8, .cls-3 {
        stroke-linecap: round;
        stroke-linejoin: round;
      }

      .cls-1, .cls-3, .cls-4, .cls-5, .cls-9 {
        fill: none;
      }

      .cls-1, .cls-5 {
        stroke-width: .7px;
      }

      .cls-2 {
        stroke-width: 2.6px;
      }

      .cls-2, .cls-8, .cls-10, .cls-11, .cls-7, .cls-12 {
        fill: #fff;
      }

      .cls-2, .cls-10, .cls-11, .cls-4, .cls-5, .cls-9, .cls-6, .cls-7 {
        stroke-miterlimit: 10;
      }

      .cls-8 {
        stroke-width: 1.2px;
      }

      .cls-8, .cls-9 {
        stroke: #000;
      }

      .cls-10 {
        stroke: #010101;
      }

      .cls-10, .cls-11 {
        stroke-width: .8px;
      }

      .cls-11 {
        stroke: #221f1f;
      }

      .cls-3 {
        stroke-width: 1.2px;
      }

      .cls-4 {
        stroke-width: 5.1px;
      }

      .cls-9 {
        stroke-width: 1.5px;
      }

      .cls-6, .cls-7 {
        stroke-width: .8px;
      }

      .cls-6, .cls-13 {
        fill: #231f20;
      }

      .cls-14 {
        fill: #17a3cc;
      }

      .cls-14, .cls-15, .cls-13, .cls-16, .cls-12, .cls-17, .cls-18 {
        stroke-width: 0px;
      }

      .cls-15 {
        fill: #1c75bc;
      }

      .cls-16 {
        fill: #a7a9ac;
      }

      .cls-17 {
        fill: #ed1c24;
      }

      .cls-18 {
        fill: #f6c36c;
      }
    </style>
  </defs>
  <rect class="cls-2" x="2.7" y="2.6" width="277.7" height="278.2" rx="6.5" ry="6.5"/>
  <rect class="cls-2" x="2.7" y="2.6" width="277.7" height="278.2" rx="6.5" ry="6.5"/>
  <g>
    <path class="cls-5" d="m245.1,54.3c-1.2-1.1-2.5-2.1-3.9-3-2.4-1.5-5.1-2.6-7.9-3.1-1.4-.3-2.9-.4-4.4-.4-1.5,0-3,.2-4.4.4-10.8,2.1-18.9,11.6-18.8,23,0,12.9,10.5,23.3,23.3,23.2,12.9,0,23.2-10.5,23.2-23.4,0-6.6-2.8-12.5-7.2-16.8Zm-16.1,36.1c-10.6,0-19.3-8.6-19.3-19.2,0-9.1,6.3-16.8,14.8-18.8,1.4-.3,2.9-.5,4.4-.5s3,.2,4.4.5c1.9.4,3.6,1.1,5.3,2.1,1.4.8,2.7,1.8,3.9,3,3.6,3.5,5.7,8.3,5.8,13.7,0,10.7-8.6,19.3-19.2,19.3Z"/>
    <path class="cls-5" d="m233.3,46v2.3c-1.4-.3-2.9-.4-4.4-.4-1.5,0-3,.2-4.4.4v-2.3s8.8,0,8.8,0Z"/>
    <path class="cls-5" d="m222.8,42.7h12.1c.3,0,.6.3.6.6v2c0,.3-.3.6-.6.6h-12.1c-.3,0-.6-.3-.6-.6v-2c0-.3.3-.6.6-.6Z" transform="translate(-.1 .6) rotate(-.2)"/>
    <g>
      <line class="cls-1" x1="228.9" y1="51.9" x2="228.9" y2="54.7"/>
      <line class="cls-1" x1="229" y1="87.6" x2="229" y2="90.5"/>
    </g>
    <g>
      <line class="cls-1" x1="248.2" y1="71.1" x2="245.4" y2="71.1"/>
      <line class="cls-1" x1="212.5" y1="71.2" x2="209.7" y2="71.2"/>
    </g>
    <line class="cls-3" x1="230.1" y1="71.3" x2="234.6" y2="65.9"/>
    <path class="cls-1" d="m246.5,52.6l-1.5,1.8c-1.2-1.1-2.5-2.1-3.9-3l1.6-1.9c.3-.3.7-.3,1,0l2.7,2.3c.3.3.3.7,0,1Z"/>
  </g>
  <g>
    <path class="cls-3" d="m230.4,35.8c18.5.5,33.1,15.9,32.7,34.5-.5,18.6-15.9,33.2-34.4,32.7"/>
    <line class="cls-3" x1="226.8" y1="102.9" x2="232.2" y2="106.5"/>
    <line class="cls-3" x1="227" y1="103" x2="232.1" y2="99"/>
  </g>
  <g>
    <path class="cls-13" d="m209.2,25.8c0-3.9,1.4-6,3.8-6s3.8,2.1,3.8,6-1.4,6.1-3.8,6.1-3.8-2.2-3.8-6.1Zm6,0c0-3.4-.9-4.8-2.3-4.8s-2.3,1.4-2.3,4.8.9,4.9,2.3,4.9,2.3-1.5,2.3-4.9Z"/>
    <path class="cls-13" d="m218.3,30.8c3.5-3.5,5.5-5.6,5.5-7.5s-.7-2.3-2.2-2.3-1.8.6-2.5,1.4l-.9-.9c1-1.1,2-1.8,3.6-1.8,2.2,0,3.5,1.4,3.5,3.5s-2,4.4-4.8,7.3c.6,0,1.4-.1,2-.1h3.4v1.3h-7.6v-.9Z"/>
    <path class="cls-13" d="m227.9,24.1c0-.7.5-1.2,1.1-1.2s1.1.5,1.1,1.2-.5,1.1-1.1,1.1-1.1-.5-1.1-1.1Zm0,6.6c0-.7.5-1.2,1.1-1.2s1.1.5,1.1,1.2-.5,1.1-1.1,1.1-1.1-.5-1.1-1.1Z"/>
    <path class="cls-13" d="m232.1,25.8c0-3.9,1.4-6,3.8-6s3.8,2.1,3.8,6-1.4,6.1-3.8,6.1-3.8-2.2-3.8-6.1Zm6,0c0-3.4-.9-4.8-2.3-4.8s-2.3,1.4-2.3,4.8.9,4.9,2.3,4.9,2.3-1.5,2.3-4.9Z"/>
    <path class="cls-13" d="m241.2,25.8c0-3.9,1.4-6,3.8-6s3.8,2.1,3.8,6-1.4,6.1-3.8,6.1-3.8-2.2-3.8-6.1Zm6,0c0-3.4-.9-4.8-2.3-4.8s-2.3,1.4-2.3,4.8.9,4.9,2.3,4.9,2.3-1.5,2.3-4.9Z"/>
  </g>
  <g>
    <g>
      <path class="cls-10" d="m52.9,51.9l2.3,105.4c-.8,0-1.5,0-2.3,0-1.6,0-3.2-.1-4.7-.4.8-35,2.6-69.9,2.9-105,0-.7.4-1.3.9-1.3s.9.6.9,1.3Z"/>
      <path class="cls-10" d="m61.4,37v119c-.6.2-1.2.4-1.8.5V37c0-3.2-2.6-5.8-5.8-5.8h1.8c3.2,0,5.8,2.6,5.8,5.8Z"/>
      <path class="cls-10" d="m59.6,37v119.5c-1.4.3-2.9.6-4.4.7l-2.3-105.4c0-.7-.4-1.3-.9-1.3s-.9.6-.9,1.3c-.3,35.1-2.1,70-2.9,105-.6,0-1.3-.2-1.9-.4-.6-.1-1.2-.3-1.8-.5V37c0-3.2,2.6-5.8,5.8-5.8h3.5c3.2,0,5.8,2.6,5.8,5.8Z"/>
      <path class="cls-10" d="m55.2,157.2c-.8,0-1.5,0-2.3,0-1.6,0-3.2-.1-4.7-.4.8-35,2.6-69.9,2.9-105,0-.7.4-1.3.9-1.3s.9.6.9,1.3l2.3,105.4Z"/>
      <path class="cls-10" d="m55.2,157.2c-.8,0-1.5,0-2.3,0-1.6,0-3.2-.1-4.7-.4.8-35,2.6-69.9,2.9-105,0-.7.4-1.3.9-1.3s.9.6.9,1.3l2.3,105.4Z"/>
    </g>
    <path class="cls-11" d="m61.4,156v32.2c0,2.2-1.8,3.9-4,3.9h-9.2c-2.1,0-3.8-1.6-3.8-3.6v-32.4c.6.2,1.2.4,1.8.5.6.2,1.3.3,1.9.4,1.6.3,3.2.4,4.7.4s1.5,0,2.3,0c1.5-.1,2.9-.3,4.4-.7.6-.1,1.2-.3,1.8-.5Z"/>
    <g>
      <path class="cls-10" d="m86.2,34.6l2.3,105.4c-.8,0-1.5,0-2.3,0-1.6,0-3.2-.1-4.7-.4.8-35,2.6-69.9,2.9-105,0-.7.4-1.4.9-1.4s.9.6.9,1.3Z"/>
      <path class="cls-10" d="m94.7,19.7v119c-.6.2-1.2.4-1.8.5V19.7c0-3.2-2.6-5.8-5.8-5.8h1.8c3.2,0,5.8,2.6,5.8,5.8Z"/>
      <path class="cls-10" d="m92.8,19.7v119.5c-1.4.3-2.9.6-4.4.7l-2.3-105.4c0-.7-.4-1.3-.9-1.3s-.9.6-.9,1.4c-.3,35.1-2.1,70-2.9,105-.6,0-1.3-.2-1.9-.4-.6-.1-1.2-.3-1.8-.5V19.7c0-3.2,2.6-5.8,5.8-5.8h3.5c3.2,0,5.8,2.6,5.8,5.8Z"/>
      <path class="cls-10" d="m88.5,139.9c-.8,0-1.5,0-2.3,0-1.6,0-3.2-.1-4.7-.4.8-35,2.6-69.9,2.9-105,0-.7.4-1.4.9-1.4s.9.6.9,1.3l2.3,105.4Z"/>
      <path class="cls-10" d="m88.5,139.9c-.8,0-1.5,0-2.3,0-1.6,0-3.2-.1-4.7-.4.8-35,2.6-69.9,2.9-105,0-.7.4-1.4.9-1.4s.9.6.9,1.3l2.3,105.4Z"/>
    </g>
    <path class="cls-11" d="m94.7,138.7v32.2c0,2.2-1.8,3.9-4,3.9h-9.2c-2.1,0-3.8-1.6-3.8-3.6v-32.4c.6.2,1.2.4,1.8.5.6.2,1.3.3,1.9.4,1.6.3,3.2.4,4.7.4s1.5,0,2.3,0c1.5-.1,2.9-.3,4.4-.7.6-.1,1.2-.3,1.8-.5Z"/>
    <path class="cls-7" d="m190,227.5l-57.2,36.9v-18.8l56.2-36.3c.4-.3,1,0,1,.5v17.7Z"/>
    <ellipse class="cls-16" cx="180.1" cy="227.3" rx="7.5" ry="7.5"/>
    <path class="cls-7" d="m194.6,243.3l6.7-11.5-16.2-9.4c-3.2-1.8-7.3-.8-9.1,2.4h0c-1.8,3.2-.7,7.3,2.4,9.1l16.2,9.4Z"/>
    <path class="cls-7" d="m70.7,202.6l6.7-11.5-16.2-9.4c-3.2-1.8-7.3-.8-9.1,2.4h0c-1.8,3.2-.7,7.3,2.4,9.1l16.2,9.4Z"/>
    <path class="cls-7" d="m105.5,181.3l2.4-4.2c1.2-2,.5-4.6-1.6-5.8l-12.5-7.2c-3.2-1.8-7.3-.8-9.1,2.4h0c-1.8,3.2-.7,7.3,2.4,9.1l12.5,7.3c2,1.2,4.6.5,5.8-1.6Z"/>
    <polygon class="cls-7" points="186.5 204.5 129.3 240 60.3 198.3 120.2 163.9 186.5 204.5"/>
    <path class="cls-7" d="m188.9,210l-56.1,35.6-3.6-5.7,56.1-35.6c.6-.4,1.3-.2,1.7.4l2.3,3.7c.4.6.2,1.3-.4,1.7Z"/>
    <polygon class="cls-7" points="129.2 239.9 132.7 245.5 132.4 264.4 59.7 220.6 60.1 198.4 129.2 239.9"/>
    <polygon class="cls-18" points="100.1 241.2 62.6 218.7 62.6 204 100.1 226.4 100.1 241.2"/>
    <g>
      <polygon class="cls-13" points="89 222.2 89 232.8 81.8 228.5 81.8 217.9 82.7 218.4 82.7 217.9 83.4 218.3 83.4 217.9 87.5 220.4 87.5 220.8 88.2 221.2 88.2 221.7 89 222.2"/>
      <polygon class="cls-12" points="88.2 224.4 82.4 228.2 88.3 231.3 88.2 224.4"/>
    </g>
    <g>
      <polygon class="cls-13" points="71.5 211.2 71.5 221.8 64.3 217.5 64.4 206.9 65.2 207.4 65.2 206.9 65.9 207.4 65.9 206.9 70 209.4 70 209.8 70.7 210.2 70.7 210.7 71.5 211.2"/>
      <polygon class="cls-12" points="70.8 213.5 65 217.2 70.8 220.4 70.8 213.5"/>
    </g>
    <g>
      <polygon class="cls-13" points="80.3 216.8 80.2 227.4 73.1 223.1 73.1 212.5 73.9 213 73.9 212.5 74.6 212.9 74.6 212.5 78.7 215 78.7 215.4 79.5 215.8 79.5 216.3 80.3 216.8"/>
      <polygon class="cls-12" points="79.5 219 73.7 222.7 79.5 225.9 79.5 219"/>
    </g>
    <g>
      <polygon class="cls-13" points="97.6 227.3 97.6 237.9 90.4 233.6 90.4 223 91.3 223.5 91.3 223 92 223.4 92 223 96.1 225.5 96.1 225.9 96.8 226.3 96.8 226.8 97.6 227.3"/>
      <polygon class="cls-12" points="96.8 229.5 91 233.2 96.9 236.4 96.8 229.5"/>
    </g>
    <g>
      <polygon class="cls-15" points="112.4 248.5 102.2 242.3 102.2 227.7 112.5 233.5 112.4 248.5"/>
      <g>
        <polygon class="cls-13" points="111 235 111 245.6 103.8 241.3 103.8 230.8 104.6 231.2 104.6 230.8 105.3 231.2 105.3 230.8 109.4 233.2 109.4 233.6 110.2 234 110.2 234.5 111 235"/>
        <polygon class="cls-12" points="110.2 237.3 104.4 241 110.3 244.2 110.2 237.3"/>
      </g>
    </g>
    <path class="cls-6" d="m127.1,255.6l-5.4-3.4s0,0,0-.1v-9.8c0-.1.1-.2.2-.1l5.4,3.4s0,0,0,.1v9.8c0,.1-.1.2-.2.1Z"/>
    <ellipse class="cls-6" cx="117.1" cy="244.8" rx="1.2" ry="2.8"/>
    <ellipse class="cls-18" cx="147.7" cy="247.3" rx="8.1" ry="8.1"/>
    <path class="cls-7" d="m162.3,263.8l6.9-12-16.9-9.7c-3.3-1.9-7.6-.8-9.5,2.5h0c-1.9,3.3-.8,7.5,2.5,9.5l16.9,9.8Z"/>
    <g>
      <circle class="cls-13" cx="157.3" cy="199" r="1.7"/>
      <circle class="cls-13" cx="153.5" cy="196.7" r="1.7"/>
      <circle class="cls-13" cx="149.7" cy="194.5" r="1.7"/>
      <circle class="cls-13" cx="145.9" cy="192.3" r="1.7"/>
      <circle class="cls-13" cx="142.1" cy="190" r="1.7"/>
      <circle class="cls-13" cx="138.3" cy="187.8" r="1.7"/>
      <circle class="cls-13" cx="130.7" cy="183.3" r="1.7"/>
      <circle class="cls-13" cx="134.5" cy="185.5" r="1.7"/>
    </g>
    <g>
      <path class="cls-10" d="m163.2,123.5l2.3,105.4c-.8,0-1.5,0-2.3,0-1.6,0-3.2-.1-4.7-.4.8-35,2.6-69.9,2.9-105,0-.7.4-1.3.9-1.3s.9.6.9,1.3Z"/>
      <path class="cls-10" d="m171.7,108.7v119c-.6.2-1.2.4-1.8.5v-119.5c0-3.2-2.6-5.8-5.8-5.8h1.8c3.2,0,5.8,2.6,5.8,5.8Z"/>
      <path class="cls-10" d="m169.9,108.7v119.5c-1.4.3-2.9.6-4.4.7l-2.3-105.4c0-.7-.4-1.3-.9-1.3s-.9.6-.9,1.3c-.3,35.1-2.1,70-2.9,105-.6,0-1.3-.2-1.9-.4-.6-.1-1.2-.3-1.8-.5v-119c0-3.2,2.6-5.8,5.8-5.8h3.5c3.2,0,5.8,2.6,5.8,5.8Z"/>
      <path class="cls-10" d="m165.5,228.9c-.8,0-1.5,0-2.3,0-1.6,0-3.2-.1-4.7-.4.8-35,2.6-69.9,2.9-105,0-.7.4-1.3.9-1.3s.9.6.9,1.3l2.3,105.4Z"/>
      <path class="cls-10" d="m165.5,228.9c-.8,0-1.5,0-2.3,0-1.6,0-3.2-.1-4.7-.4.8-35,2.6-69.9,2.9-105,0-.7.4-1.3.9-1.3s.9.6.9,1.3l2.3,105.4Z"/>
    </g>
    <path class="cls-11" d="m171.7,227.7v32.2c0,2.2-1.8,3.9-4,3.9h-9.2c-2.1,0-3.8-1.6-3.8-3.6v-32.4c.6.2,1.2.4,1.8.5.6.2,1.3.3,1.9.4,1.6.3,3.2.4,4.7.4s1.5,0,2.3,0c1.5-.1,2.9-.3,4.4-.7.6-.1,1.2-.3,1.8-.5Z"/>
    <g>
      <g>
        <path class="cls-10" d="m195.8,103.3l2.3,105.4c-.8,0-1.5,0-2.3,0-1.6,0-3.2-.1-4.7-.4.8-35,2.6-69.9,2.9-105,0-.7.4-1.4.9-1.4s.9.6.9,1.3Z"/>
        <path class="cls-10" d="m204.3,88.4v119c-.6.2-1.2.4-1.8.5v-119.5c0-3.2-2.6-5.8-5.8-5.8h1.8c3.2,0,5.8,2.6,5.8,5.8Z"/>
        <path class="cls-10" d="m202.5,88.4v119.5c-1.4.3-2.9.6-4.4.7l-2.3-105.4c0-.7-.4-1.3-.9-1.3s-.9.6-.9,1.4c-.3,35.1-2.1,70-2.9,105-.6,0-1.3-.2-1.9-.4-.6-.1-1.2-.3-1.8-.5v-119c0-3.2,2.6-5.8,5.8-5.8h3.5c3.2,0,5.8,2.6,5.8,5.8Z"/>
        <path class="cls-10" d="m198.1,208.6c-.8,0-1.5,0-2.3,0-1.6,0-3.2-.1-4.7-.4.8-35,2.6-69.9,2.9-105,0-.7.4-1.4.9-1.4s.9.6.9,1.3l2.3,105.4Z"/>
        <path class="cls-10" d="m198.1,208.6c-.8,0-1.5,0-2.3,0-1.6,0-3.2-.1-4.7-.4.8-35,2.6-69.9,2.9-105,0-.7.4-1.4.9-1.4s.9.6.9,1.3l2.3,105.4Z"/>
      </g>
      <path class="cls-11" d="m204.3,207.4v32.2c0,2.2-1.8,3.9-4,3.9h-9.2c-2.1,0-3.8-1.6-3.8-3.6v-32.4c.6.2,1.2.4,1.8.5.6.2,1.3.3,1.9.4,1.6.3,3.2.4,4.7.4s1.5,0,2.3,0c1.5-.1,2.9-.3,4.4-.7.6-.1,1.2-.3,1.8-.5Z"/>
    </g>
  </g>
  <g>
    <ellipse class="cls-8" cx="127.3" cy="115.5" rx="21.3" ry="21.4"/>
    <g>
      <circle class="cls-14" cx="111.3" cy="115.5" r="1.3"/>
      <circle class="cls-14" cx="115.9" cy="115.5" r="1.3"/>
      <circle class="cls-14" cx="120.5" cy="115.5" r="1.3"/>
      <circle class="cls-14" cx="125" cy="115.5" r="1.3"/>
      <circle class="cls-14" cx="129.6" cy="115.5" r="1.3"/>
      <circle class="cls-14" cx="134.2" cy="115.5" r="1.3"/>
      <circle class="cls-14" cx="138.7" cy="115.5" r="1.3"/>
      <circle class="cls-17" cx="143.3" cy="115.5" r="1.3"/>
    </g>
  </g>
  <line class="cls-9" x1="127.3" y1="135.7" x2="127.3" y2="184.5"/>
  <g>
    <rect class="cls-4" x="2.7" y="2.6" width="277.7" height="278.2" rx="6.5" ry="6.5"/>
    <path class="cls-13" d="m2.7,243.7h46.9c2.6,0,4.7,2.1,4.7,4.7v32.4H8.5c-3.2,0-5.8-2.6-5.8-5.8v-31.3h0Z"/>
    <path class="cls-12" d="m22.8,268.6l1.1-1.4c1,1,2.3,2,4.3,2s3.7-1.5,3.7-3.9-1.4-3.8-3.6-3.8-1.9.4-2.9,1l-1.2-.7.6-8.2h8.6v1.9h-6.6l-.5,5.1c.8-.4,1.6-.7,2.6-.7,2.9,0,5.3,1.7,5.3,5.4s-2.8,5.8-5.8,5.8-4.4-1.2-5.6-2.4Z"/>
  </g>
</svg>