<?xml version="1.0" encoding="UTF-8"?>
<svg id="Layer_1" data-name="Layer 1" xmlns="http://www.w3.org/2000/svg" xmlns:xlink="http://www.w3.org/1999/xlink" viewBox="0 0 283.5 283.5">
  <defs>
    <style>
      .cls-1, .cls-2, .cls-3, .cls-4, .cls-5, .cls-6, .cls-7, .cls-8 {
        stroke: #231f20;
        stroke-miterlimit: 10;
      }

      .cls-1, .cls-2, .cls-5, .cls-6, .cls-9, .cls-8 {
        fill: #fff;
      }

      .cls-1, .cls-3 {
        stroke-width: 2.5px;
      }

      .cls-2 {
        stroke-width: 1.8px;
      }

      .cls-3, .cls-10 {
        fill: #231f20;
      }

      .cls-11 {
        clip-path: url(#clippath);
      }

      .cls-12, .cls-4 {
        fill: none;
      }

      .cls-12, .cls-13, .cls-14, .cls-10, .cls-15, .cls-9, .cls-16 {
        stroke-width: 0px;
      }

      .cls-4 {
        stroke-width: 5.1px;
      }

      .cls-5 {
        stroke-width: 2.2px;
      }

      .cls-6 {
        stroke-width: 3px;
      }

      .cls-13 {
        fill: #3d4042;
      }

      .cls-14 {
        fill: #1c75bc;
      }

      .cls-15 {
        fill: #a7a9ac;
      }

      .cls-16, .cls-7 {
        fill: #f6c36c;
      }

      .cls-7, .cls-8 {
        stroke-width: 1.3px;
      }
    </style>
    <clipPath id="clippath">
      <rect class="cls-12" x="3.3" y="3.3" width="276.9" height="276.9" rx="6.5" ry="6.5"/>
    </clipPath>
  </defs>
  <g class="cls-11">
    <rect class="cls-1" x="3.3" y="3.3" width="276.9" height="276.9" rx="6.5" ry="6.5"/>
    <path class="cls-1" d="m204,109.4L55.1,205.5v-49L201.5,62.1c1.1-.7,2.5,0,2.5,1.4v46Z"/>
    <polygon class="cls-1" points="194.7 49.6 45.9 142 -133.9 33.6 22.2 -55.9 194.7 49.6"/>
    <path class="cls-1" d="m36.6,93h174.7c.8,0,1.5.7,1.5,1.5v14.7c0,.8-.7,1.5-1.5,1.5H36.6v-17.6h0Z" transform="translate(-35.1 82.5) rotate(-32.3)"/>
    <polygon class="cls-1" points="45.6 141.8 54.8 156.3 54 205.2 -135.3 91.6 -134.4 33.7 45.6 141.8"/>
    <polygon class="cls-14" points="1.9 164 -24.6 148 -24.6 109.9 2.2 125 1.9 164"/>
    <path class="cls-3" d="m40.2,182.4l-14-8.8c-.1,0-.2-.2-.2-.3v-25.6c0-.3.3-.5.6-.3l14,8.8c.1,0,.2.2.2.3v25.6c0,.3-.3.5-.6.3Z"/>
    <ellipse class="cls-3" cx="14.1" cy="154.4" rx="3.1" ry="7.2"/>
    <g>
      <circle class="cls-10" cx="118.7" cy="35.3" r="4.4"/>
      <circle class="cls-10" cx="108.8" cy="29.5" r="4.4"/>
      <circle class="cls-10" cx="99" cy="23.6" r="4.4"/>
      <circle class="cls-10" cx="89.1" cy="17.8" r="4.4"/>
      <circle class="cls-10" cx="79.2" cy="12" r="4.4"/>
      <circle class="cls-10" cx="69.3" cy="6.2" r="4.4"/>
      <circle class="cls-10" cx="59.4" cy=".4" r="4.4"/>
    </g>
    <g>
      <ellipse class="cls-15" cx="179.8" cy="101" rx="11.9" ry="14"/>
      <ellipse class="cls-1" cx="179.8" cy="101" rx="8.7" ry="10.3"/>
    </g>
    <g>
      <ellipse class="cls-16" cx="81.2" cy="164.9" rx="14.2" ry="16.7"/>
      <ellipse class="cls-6" cx="81.2" cy="164.9" rx="10.4" ry="12.2"/>
    </g>
    <circle class="cls-1" cx="179.8" cy="103.1" r="16.6"/>
    <path class="cls-2" d="m195.4,84.2h0c8.1,0,14.6,6.6,14.6,14.6v41.2h-29.3v-41.2c0-8.1,6.6-14.6,14.6-14.6Z" transform="translate(.6 225.3) rotate(-60)"/>
    <path class="cls-2" d="m208.3-31h28.9v174.2c0,2.2-1.7,3.9-3.9,3.9h-21.4c-2,0-3.6-1.6-3.6-3.6V-31h0Z"/>
    <path class="cls-13" d="m185.9,182.3c-5.8-10.3-16.1-17.3-27.9-18.9l-1.2,9.3c8.8,1.2,16.5,6.4,20.9,14.2,7.6,13.6,2.8,30.8-10.8,38.5-7.4,4.1-15.8,4.6-23.2,2l-2.5,9.1c9.7,3.2,20.7,2.5,30.3-2.9,18.1-10.2,24.6-33.2,14.4-51.3Z"/>
    <path class="cls-5" d="m150.3,122.3h25c.9,0,1.7.8,1.7,1.7v159.1c0,7.9-6.4,14.3-14.3,14.3h0c-7.8,0-14.1-6.3-14.1-14.1V124c0-.9.8-1.7,1.7-1.7Z" transform="translate(425 167.4) rotate(118.6)"/>
    <path class="cls-5" d="m234.8,248.5c1.3-2.3,3-4.3,5-5.9s5.1-4,7.6-2.7l57.8,39.1-6.7,12.3s-64.4-26.4-64.5-26.4c-2.2-.9-1.9-5.6-1.9-7.5.1-2.8.8-5.6,2.1-8.1.1-.3.3-.5.4-.8Z"/>
    <circle class="cls-8" cx="186.3" cy="107" r="8.4"/>
    <circle class="cls-7" cx="100.2" cy="175.9" r="8.4"/>
    <path class="cls-13" d="m128.5,214.6c-7.4-13.2-3.1-29.9,9.7-37.8l2.8,5.1,7-15.9-17.2-2.3,2.8,5c-17.3,10.5-23.2,32.9-13.2,50.7,4.8,8.5,12.4,14.4,21,17.2l2.5-9.1c-6.3-2.2-11.8-6.6-15.3-12.8Z"/>
  </g>
  <rect class="cls-4" x="3.3" y="3.4" width="276.9" height="276.9" rx="6.5" ry="6.5"/>
  <path class="cls-10" d="m3.3,243.2h46.8c2.6,0,4.7,2.1,4.7,4.7v32.3H9.1c-3.2,0-5.8-2.6-5.8-5.8v-31.1h0Z"/>
  <path class="cls-9" d="m23.6,269.1c5.1-5.1,8-8.2,8-11s-1.1-3.3-3.2-3.3-2.7.9-3.6,2l-1.3-1.2c1.4-1.6,3-2.6,5.2-2.6,3.2,0,5.1,2,5.1,5s-2.9,6.4-7,10.6c.9,0,2-.1,2.9-.1h4.9v1.9h-11v-1.3Z"/>
</svg>