<?xml version="1.0" encoding="UTF-8"?>
<svg id="Layer_1" data-name="Layer 1" xmlns="http://www.w3.org/2000/svg" xmlns:xlink="http://www.w3.org/1999/xlink" viewBox="0 0 283.5 283.5">
  <defs>
    <style>
      .cls-1, .cls-2, .cls-3, .cls-4, .cls-5, .cls-6, .cls-7 {
        stroke-miterlimit: 10;
      }

      .cls-1, .cls-2, .cls-3, .cls-4, .cls-7 {
        stroke: #231f20;
      }

      .cls-1, .cls-2, .cls-5, .cls-6, .cls-8 {
        fill: #fff;
      }

      .cls-1, .cls-4 {
        stroke-width: 2.6px;
      }

      .cls-2, .cls-3 {
        stroke-width: .9px;
      }

      .cls-3, .cls-9, .cls-10 {
        fill: #231f20;
      }

      .cls-11 {
        clip-path: url(#clippath);
      }

      .cls-12, .cls-4, .cls-7 {
        fill: none;
      }

      .cls-12, .cls-9, .cls-13, .cls-10, .cls-14, .cls-8, .cls-15 {
        stroke-width: 0px;
      }

      .cls-5 {
        stroke: #010101;
      }

      .cls-5, .cls-6 {
        stroke-width: .9px;
      }

      .cls-6 {
        stroke: #221f1f;
      }

      .cls-7 {
        stroke-width: 5.1px;
      }

      .cls-9 {
        fill-rule: evenodd;
      }

      .cls-13 {
        fill: #1c75bc;
      }

      .cls-14 {
        fill: #a7a9ac;
      }

      .cls-15 {
        fill: #f6c36c;
      }
    </style>
    <clipPath id="clippath">
      <rect class="cls-12" x="2.4" y="2.5" width="278.3" height="278.3" rx="6.5" ry="6.5"/>
    </clipPath>
  </defs>
  <g class="cls-11">
    <rect class="cls-1" x="2.4" y="2.5" width="278.3" height="278.3" rx="6.5" ry="6.5"/>
    <rect class="cls-1" x="2.4" y="2.5" width="278.3" height="278.3" rx="6.5" ry="6.5"/>
    <g>
      <g>
        <path class="cls-4" d="m-137.7,237.9c6.5-14.6,22.8-23.2,38.7-24.3,16-1.1,31.7,4.1,46.3,10.8,24.9,11.4,47.9,27.3,74.2,34.7,26.3,7.5,58.4,4.3,75.5-17"/>
        <g>
          <rect class="cls-1" x="100.6" y="222.4" width="21.6" height="9.6" rx="1.3" ry="1.3" transform="translate(-125.3 137.9) rotate(-43.2)"/>
          <ellipse class="cls-10" cx="118.6" cy="220.4" rx="1.5" ry="3.3" transform="translate(-118.8 141) rotate(-43.2)"/>
          <path class="cls-10" d="m80.6,233.4h31c1.6,0,3,1.3,3,3v10.4c0,1.6-1.3,3-3,3h-31c-1.6,0-3-1.3-3-3v-10.4c0-1.6,1.3-3,3-3Z" transform="translate(-139.4 131.3) rotate(-43.2)"/>
        </g>
      </g>
      <path class="cls-9" d="m123.6,193.7l-.4-4.3,7.4,4.5-6.4,5.9-.4-3.5c-8.8,2.2-14.9,10.6-14,20,0,.4,0,.8.2,1.2l-2.5.4c0-.5-.1-.9-.2-1.4-1.1-10.7,6.1-20.4,16.3-22.7Z"/>
    </g>
    <rect class="cls-12" x="2.4" y="2.5" width="278.3" height="278.3" rx="6.5" ry="6.5"/>
  </g>
  <g>
    <g>
      <path class="cls-5" d="m80.8,2.2l2.6,92.3c-.9,0-1.7.1-2.6.1-1.8,0-3.5-.1-5.3-.5.9-38.8,2.9-53,3.2-91.9,0-.8.5-1.5,1-1.5s1,.6,1,1.4Z"/>
      <path class="cls-5" d="m90.2,7.3v85.9c-.7.2-1.3.4-2,.6V7.3c0-3.6-2.9-6.5-6.5-6.5h2c3.6,0,6.5,2.9,6.5,6.5Z"/>
      <path class="cls-5" d="m88.2,7.3v86.5c-1.6.4-3.2.6-4.8.8l-2.6-92.3c0-.8-.5-1.4-1-1.4s-1,.7-1,1.5c-.3,38.9-2.3,53.1-3.2,91.9-.7-.1-1.4-.3-2.1-.4-.7-.2-1.4-.3-2-.6V7.3c0-3.6,2.9-6.5,6.5-6.5h3.9c3.6,0,6.5,2.9,6.5,6.5Z"/>
      <path class="cls-5" d="m83.4,94.5c-.9,0-1.7.1-2.6.1-1.8,0-3.5-.1-5.3-.5.9-38.8,2.9-53,3.2-91.9,0-.8.5-1.5,1-1.5s1,.6,1,1.4l2.6,92.3Z"/>
      <path class="cls-5" d="m83.4,94.5c-.9,0-1.7.1-2.6.1-1.8,0-3.5-.1-5.3-.5.9-38.8,2.9-53,3.2-91.9,0-.8.5-1.5,1-1.5s1,.6,1,1.4l2.6,92.3Z"/>
    </g>
    <path class="cls-6" d="m90.2,93.2v35.7c0,2.4-2,4.3-4.5,4.3h-10.2c-2.3,0-4.2-1.8-4.2-4v-36c.7.2,1.3.4,2,.6.7.2,1.4.3,2.1.4,1.7.3,3.5.5,5.3.5s1.7,0,2.6-.1c1.6-.1,3.2-.4,4.8-.8.7-.2,1.4-.3,2-.6Z"/>
    <g>
      <path class="cls-5" d="m118.8,3.2l1.6,72.2c-.9,0-1.7.1-2.6.1-1.8,0-3.5-.1-5.3-.5.9-38.8,3.9-32.8,4.2-71.7,0-.8.5-1.5,1-1.5s1,.6,1,1.4Z"/>
      <path class="cls-5" d="m127.2,7.3v66.8c-.7.2-1.3.4-2,.6V7.3c0-3.6-2.9-6.5-6.5-6.5h2c3.6,0,6.5,2.9,6.5,6.5Z"/>
      <path class="cls-5" d="m125.2,7.3v67.3c-1.6.4-3.2.6-4.8.8l-1.6-72.2c0-.8-.5-1.4-1-1.4s-1,.7-1,1.5c-.3,38.9-1.1,33.4-2,72.2-.7-.1-3.6-.7-4.4-.9-.7-.2-1.4-.3-2-.6V7.3c0-3.6,2.9-6.5,6.5-6.5h3.9c3.6,0,6.5,2.9,6.5,6.5Z"/>
      <path class="cls-5" d="m116.8,3.3c0-.8.5-1.5,1-1.5s1,.6,1,1.4l1.6,72.2c-.9,0-1.7.1-2.6.1"/>
      <path class="cls-5" d="m120.3,75.4c-.9,0-1.7.1-2.6.1-1.8,0-1.3.3-3,0,1.2-63.9.3-73.1,1.7-73.7.7-.4.8,0,1.3,0s1,.6,1,1.4l1.6,72.2Z"/>
    </g>
    <path class="cls-6" d="m127.2,74.1v35.7c0,2.4-2,4.3-4.5,4.3h-10.2c-2.3,0-4.2-1.8-4.2-4v-36c.7.2,1.3.4,2,.6.7.2,1.4.3,2.1.4,1.7.3,3.5.5,5.3.5s1.7,0,2.6-.1c1.6-.1,3.2-.4,4.8-.8.7-.2,1.4-.3,2-.6Z"/>
    <path class="cls-2" d="m233.2,172.5l-63.5,41v-20.9l62.5-40.3c.5-.3,1.1,0,1.1.6v19.6Z"/>
    <circle class="cls-14" cx="222.1" cy="172.2" r="8.4"/>
    <path class="cls-2" d="m238.2,190l7.4-12.8-18-10.4c-3.5-2-8.1-.8-10.1,2.7h0c-2,3.5-.8,8.1,2.7,10.1l18,10.4Z"/>
    <path class="cls-2" d="m103.2,140.3l2.1-3.6c1.5-2.5.6-5.8-1.9-7.3l-13.4-7.7c-3.5-2-8.1-.8-10.1,2.7h0c-2,3.5-.8,8.1,2.7,10.1l13.4,7.7c2.5,1.5,5.8.6,7.3-1.9Z"/>
    <path class="cls-2" d="m139.6,120.8l2.1-3.6c1.5-2.5.6-5.8-1.9-7.3l-13.4-7.7c-3.5-2-8.1-.8-10.1,2.7h0c-2,3.5-.8,8.1,2.7,10.1l13.4,7.7c2.5,1.5,5.8.6,7.3-1.9Z"/>
    <polygon class="cls-2" points="229.2 146.9 165.7 186.4 89 140.1 155.6 101.9 229.2 146.9"/>
    <path class="cls-2" d="m232.2,152.9l-62.6,39.6-4-6.4,62.6-39.6c.5-.3,1.1-.2,1.5.3l2.9,4.6c.3.5.2,1.1-.3,1.5Z"/>
    <polygon class="cls-2" points="165.6 186.3 169.5 192.5 169.2 213.4 88.4 164.9 88.8 140.2 165.6 186.3"/>
    <polygon class="cls-15" points="133.2 187.6 91.5 162.7 91.6 146.4 133.3 171.3 133.2 187.6"/>
    <g>
      <polygon class="cls-10" points="120.9 166.6 120.9 178.3 112.9 173.6 113 161.8 113.9 162.4 113.9 161.8 114.7 162.3 114.7 161.8 119.2 164.6 119.2 165 120 165.5 120 166.1 120.9 166.6"/>
      <polygon class="cls-8" points="120.1 169.1 113.6 173.2 120.1 176.7 120.1 169.1"/>
    </g>
    <g>
      <polygon class="cls-10" points="101.5 154.4 101.5 166.2 93.5 161.4 93.5 149.7 94.5 150.2 94.5 149.7 95.2 150.2 95.2 149.7 99.8 152.4 99.8 152.9 100.6 153.4 100.6 153.9 101.5 154.4"/>
      <polygon class="cls-8" points="100.7 156.9 94.2 161.1 100.7 164.6 100.7 156.9"/>
    </g>
    <g>
      <polygon class="cls-10" points="111.2 160.6 111.2 172.3 103.2 167.6 103.2 155.8 104.2 156.4 104.2 155.8 105 156.3 105 155.8 109.5 158.6 109.5 159 110.3 159.5 110.3 160.1 111.2 160.6"/>
      <polygon class="cls-8" points="110.4 163.1 103.9 167.2 110.4 170.7 110.4 163.1"/>
    </g>
    <g>
      <polygon class="cls-10" points="130.5 172.2 130.4 184 122.5 179.2 122.5 167.5 123.4 168 123.4 167.5 124.2 168 124.2 167.5 128.8 170.2 128.8 170.7 129.6 171.2 129.6 171.7 130.5 172.2"/>
      <polygon class="cls-8" points="129.6 174.7 123.2 178.9 129.7 182.4 129.6 174.7"/>
    </g>
    <g>
      <polygon class="cls-13" points="146.9 195.8 135.6 188.9 135.6 172.7 147.1 179.1 146.9 195.8"/>
      <g>
        <polygon class="cls-10" points="145.3 180.8 145.3 192.6 137.4 187.8 137.4 176.1 138.3 176.6 138.3 176.1 139.1 176.6 139.1 176.1 143.6 178.8 143.6 179.3 144.4 179.8 144.4 180.3 145.3 180.8"/>
        <polygon class="cls-8" points="144.5 183.3 138.1 187.5 144.6 191 144.5 183.3"/>
      </g>
    </g>
    <path class="cls-3" d="m163.3,203.6l-6-3.8s0,0,0-.1v-10.9c0-.1.1-.2.3-.1l6,3.8s0,0,0,.1v10.9c0,.1-.1.2-.3.1Z"/>
    <ellipse class="cls-3" cx="152.1" cy="191.7" rx="1.3" ry="3.1"/>
    <circle class="cls-15" cx="186.2" cy="194.5" r="9"/>
    <path class="cls-2" d="m205.2,207.9l2.2-3.7c1.5-2.6.6-6-2-7.5l-14-8.1c-3.7-2.1-8.4-.9-10.5,2.8h0c-2.1,3.7-.9,8.4,2.8,10.5l14,8.1c2.6,1.5,6,.6,7.5-2Z"/>
    <g>
      <circle class="cls-10" cx="196.8" cy="140.9" r="1.9"/>
      <circle class="cls-10" cx="192.6" cy="138.4" r="1.9"/>
      <circle class="cls-10" cx="188.4" cy="135.9" r="1.9"/>
      <circle class="cls-10" cx="184.1" cy="133.4" r="1.9"/>
      <circle class="cls-10" cx="179.9" cy="130.9" r="1.9"/>
      <circle class="cls-10" cx="175.7" cy="128.4" r="1.9"/>
      <circle class="cls-10" cx="167.3" cy="123.5" r="1.9"/>
      <circle class="cls-10" cx="171.5" cy="126" r="1.9"/>
    </g>
    <g>
      <path class="cls-5" d="m203.4,57.2l2.6,116.8c-.9,0-1.7.1-2.6.1-1.8,0-3.5-.1-5.3-.5.9-38.8,2.9-77.5,3.2-116.4,0-.8.5-1.5,1-1.5s1,.6,1,1.4Z"/>
      <path class="cls-5" d="m212.8,40.7v132c-.7.2-1.3.4-2,.6V40.7c0-3.6-2.9-6.5-6.5-6.5h2c3.6,0,6.5,2.9,6.5,6.5Z"/>
      <path class="cls-5" d="m210.8,40.7v132.6c-1.6.4-3.2.6-4.8.8l-2.6-116.8c0-.8-.5-1.4-1-1.4s-1,.7-1,1.5c-.3,38.9-2.3,77.6-3.2,116.4-.7-.1-1.4-.3-2.1-.4-.7-.2-1.4-.3-2-.6V40.7c0-3.6,2.9-6.5,6.5-6.5h3.9c3.6,0,6.5,2.9,6.5,6.5Z"/>
      <path class="cls-5" d="m205.9,174c-.9,0-1.7.1-2.6.1-1.8,0-3.5-.1-5.3-.5.9-38.8,2.9-77.5,3.2-116.4,0-.8.5-1.5,1-1.5s1,.6,1,1.4l2.6,116.8Z"/>
      <path class="cls-5" d="m205.9,174c-.9,0-1.7.1-2.6.1-1.8,0-3.5-.1-5.3-.5.9-38.8,2.9-77.5,3.2-116.4,0-.8.5-1.5,1-1.5s1,.6,1,1.4l2.6,116.8Z"/>
    </g>
    <path class="cls-6" d="m212.8,172.7v35.7c0,2.4-2,4.3-4.5,4.3h-10.2c-2.3,0-4.2-1.8-4.2-4v-36c.7.2,1.3.4,2,.6.7.2,1.4.3,2.1.4,1.7.3,3.5.5,5.3.5s1.7,0,2.6-.1c1.6-.1,3.2-.4,4.8-.8.7-.2,1.4-.3,2-.6Z"/>
    <g>
      <g>
        <path class="cls-5" d="m239.6,34.7l2.6,116.8c-.9,0-1.7.1-2.6.1-1.8,0-3.5-.1-5.3-.5.9-38.8,2.9-77.5,3.2-116.4,0-.8.5-1.5,1-1.5s1,.6,1,1.4Z"/>
        <path class="cls-5" d="m249,18.2v132c-.7.2-1.3.4-2,.6V18.2c0-3.6-2.9-6.5-6.5-6.5h2c3.6,0,6.5,2.9,6.5,6.5Z"/>
        <path class="cls-5" d="m247,18.2v132.6c-1.6.4-3.2.6-4.8.8l-2.6-116.8c0-.8-.5-1.4-1-1.4s-1,.7-1,1.5c-.3,38.9-2.3,77.6-3.2,116.4-.7-.1-1.4-.3-2.1-.4-.7-.2-1.4-.3-2-.6V18.2c0-3.6,2.9-6.5,6.5-6.5h3.9c3.6,0,6.5,2.9,6.5,6.5Z"/>
        <path class="cls-5" d="m242.1,151.6c-.9,0-1.7.1-2.6.1-1.8,0-3.5-.1-5.3-.5.9-38.8,2.9-77.5,3.2-116.4,0-.8.5-1.5,1-1.5s1,.6,1,1.4l2.6,116.8Z"/>
        <path class="cls-5" d="m242.1,151.6c-.9,0-1.7.1-2.6.1-1.8,0-3.5-.1-5.3-.5.9-38.8,2.9-77.5,3.2-116.4,0-.8.5-1.5,1-1.5s1,.6,1,1.4l2.6,116.8Z"/>
      </g>
      <path class="cls-6" d="m249,150.2v35.7c0,2.4-2,4.3-4.5,4.3h-10.2c-2.3,0-4.2-1.8-4.2-4v-36c.7.2,1.3.4,2,.6.7.2,1.4.3,2.1.4,1.7.3,3.5.5,5.3.5s1.7,0,2.6-.1c1.6-.1,3.2-.4,4.8-.8.7-.2,1.4-.3,2-.6Z"/>
    </g>
  </g>
  <g>
    <rect class="cls-7" x="2.4" y="2.5" width="278.3" height="278.3" rx="6.5" ry="6.5"/>
    <path class="cls-10" d="m2.4,243.7h47c2.6,0,4.7,2.1,4.7,4.7v32.4H8.3c-3.2,0-5.8-2.6-5.8-5.8v-31.3h0Z"/>
    <path class="cls-8" d="m29.9,259.3c0-.9,0-2.4.1-3.3h-.1c-.4.8-.9,1.6-1.4,2.4l-4,5.9h9.8v1.8h-12.1v-1.5l7.3-10.9h2.5v17.1h-2.1v-11.5Z"/>
  </g>
</svg>