<?xml version="1.0" encoding="UTF-8"?>
<svg id="Layer_1" data-name="Layer 1" xmlns="http://www.w3.org/2000/svg" xmlns:xlink="http://www.w3.org/1999/xlink" viewBox="0 0 283.5 283.5">
  <defs>
    <style>
      .cls-1 {
        stroke-width: 1.2px;
      }

      .cls-1, .cls-2, .cls-3, .cls-4, .cls-5, .cls-6, .cls-7 {
        stroke: #231f20;
        stroke-miterlimit: 10;
      }

      .cls-1, .cls-8 {
        fill: #f6c36c;
      }

      .cls-2 {
        stroke-width: 2.5px;
      }

      .cls-2, .cls-3, .cls-5, .cls-9 {
        fill: #fff;
      }

      .cls-3, .cls-4, .cls-7 {
        stroke-width: 2.5px;
      }

      .cls-4, .cls-10 {
        fill: #231f20;
      }

      .cls-11 {
        clip-path: url(#clippath);
      }

      .cls-12, .cls-6, .cls-7 {
        fill: none;
      }

      .cls-12, .cls-13, .cls-14, .cls-15, .cls-10, .cls-16, .cls-9, .cls-8 {
        stroke-width: 0px;
      }

      .cls-5 {
        stroke-width: 2.7px;
      }

      .cls-6 {
        stroke-width: 5.1px;
      }

      .cls-17 {
        clip-path: url(#clippath-1);
      }

      .cls-13 {
        fill-rule: evenodd;
      }

      .cls-13, .cls-14 {
        fill: #3d4042;
      }

      .cls-15 {
        fill: #1c75bc;
      }

      .cls-16 {
        fill: #a7a9ac;
      }
    </style>
    <clipPath id="clippath">
      <rect class="cls-12" x="1" y="3.3" width="276.9" height="276.9" rx="6.5" ry="6.5"/>
    </clipPath>
    <clipPath id="clippath-1">
      <rect class="cls-12" x="334" y="3.2" width="276.9" height="276.9" rx="6.5" ry="6.5"/>
    </clipPath>
  </defs>
  <g class="cls-11">
    <rect class="cls-3" x="1" y="3.3" width="276.9" height="276.9" rx="6.5" ry="6.5"/>
    <g>
      <path class="cls-3" d="m274.6-63.7h14.6c2.2,0,3.9,1.7,3.9,3.9V72.5h-22.1V-60.1c0-2,1.6-3.6,3.6-3.6Z" transform="translate(564 8.8) rotate(180)"/>
      <path class="cls-3" d="m247.1,83.8l-4.4-7.6c-1.9-3.3-.8-7.4,2.5-9.3l21.4-12.3c5.4-3.1,12.2-1.3,15.3,4.1h0c3.1,5.4,1.3,12.2-4.1,15.3l-21.4,12.3c-3.3,1.9-7.4.8-9.3-2.5Z"/>
      <g>
        <path class="cls-3" d="m218.7-97.6h14.6c2.2,0,3.9,1.7,3.9,3.9V38.6h-22.1V-93.9c0-2,1.6-3.6,3.6-3.6Z" transform="translate(452.2 -58.9) rotate(180)"/>
        <path class="cls-3" d="m191.2,50l-4.4-7.6c-1.9-3.3-.8-7.4,2.5-9.3l21.4-12.3c5.4-3.1,12.2-1.3,15.3,4.1h0c3.1,5.4,1.3,12.2-4.1,15.3l-21.4,12.3c-3.3,1.9-7.4.8-9.3-2.5Z"/>
      </g>
      <path class="cls-3" d="m43.2,123.5l96.2,62v-31.6l-94.6-61c-.7-.4-1.6,0-1.6.9v29.7Z"/>
      <circle class="cls-16" cx="58.4" cy="123.7" r="12.7"/>
      <path class="cls-3" d="m36.2,151.4l-11.2-19.4,27.4-15.8c5.3-3.1,12.1-1.2,15.1,4l3.5,6c1.2,2.1.5,4.8-1.6,6l-33.2,19.1Z"/>
      <g>
        <path class="cls-3" d="m20.8,21.7h14.6c2.2,0,3.9,1.7,3.9,3.9v132.3h-22.1V25.3c0-2,1.6-3.6,3.6-3.6Z" transform="translate(56.5 179.5) rotate(180)"/>
        <path class="cls-3" d="m28.6,26.3c2,0,4-.4,5.9-1.2s4.7-2,4.7-4.2l-5.1-54h-10.9s-6,53.8-6,53.8c-.2,1.8,3.1,3.4,4.4,4.1,2,1,4.1,1.5,6.3,1.6.2,0,.5,0,.7,0Z"/>
      </g>
      <polygon class="cls-3" points="49.2 84.8 145.4 144.5 261.6 74.4 160.7 16.6 49.2 84.8"/>
      <path class="cls-3" d="m44.5,93.7l94.9,60.1,6.1-9.6-94.9-60.1c-.7-.4-1.6-.2-2,.4l-4.5,7.2c-.4.7-.2,1.6.4,2Z"/>
      <line class="cls-7" x1="201.9" y1="206.7" x2="201.9" y2="205.8"/>
      <line class="cls-7" x1="201.7" y1="206.8" x2="201.9" y2="206.7"/>
      <polygon class="cls-3" points="145.6 144.4 139.6 153.7 140.2 185.3 262.4 111.9 261.8 74.5 145.6 144.4"/>
      <polygon class="cls-8" points="194.6 146.4 257.7 108.6 257.6 84 194.5 121.7 194.6 146.4"/>
      <g>
        <polygon class="cls-10" points="213.2 114.5 213.3 132.3 225.3 125.1 225.3 107.3 223.9 108.2 223.9 107.3 222.7 108 222.7 107.3 215.8 111.5 215.8 112.2 214.6 112.9 214.6 113.7 213.2 114.5"/>
        <polygon class="cls-9" points="214.5 118.3 224.2 124.5 214.4 129.9 214.5 118.3"/>
      </g>
      <g>
        <polygon class="cls-10" points="242.6 96.1 242.7 113.9 254.7 106.7 254.7 88.9 253.3 89.8 253.3 88.9 252.1 89.6 252.1 88.9 245.2 93.1 245.2 93.8 244 94.5 244 95.3 242.6 96.1"/>
        <polygon class="cls-9" points="243.9 99.9 253.6 106.1 243.8 111.5 243.9 99.9"/>
      </g>
      <g>
        <polygon class="cls-10" points="227.9 105.5 228 123.2 240 116 240 98.3 238.6 99.1 238.6 98.3 237.4 99 237.4 98.3 230.5 102.4 230.5 103.1 229.3 103.8 229.3 104.7 227.9 105.5"/>
        <polygon class="cls-9" points="229.2 109.2 238.9 115.5 229.1 120.8 229.2 109.2"/>
      </g>
      <g>
        <polygon class="cls-10" points="198.7 123.1 198.8 140.9 210.9 133.6 210.8 115.9 209.4 116.7 209.4 115.9 208.2 116.6 208.2 115.9 201.3 120 201.3 120.7 200.1 121.4 200.1 122.3 198.7 123.1"/>
        <polygon class="cls-9" points="200 126.8 209.8 133.1 200 138.4 200 126.8"/>
      </g>
      <g>
        <polygon class="cls-15" points="173.8 158.7 190.9 148.4 190.9 123.7 173.6 133.5 173.8 158.7"/>
        <g>
          <polygon class="cls-10" points="176.2 136.1 176.2 153.9 188.3 146.7 188.3 128.9 186.9 129.7 186.9 128.9 185.7 129.6 185.7 128.9 178.8 133 178.8 133.7 177.6 134.5 177.6 135.3 176.2 136.1"/>
          <polygon class="cls-9" points="177.5 139.9 187.2 146.1 177.4 151.5 177.5 139.9"/>
        </g>
      </g>
      <path class="cls-4" d="m149.1,170.6l9-5.7c0,0,.1-.1.1-.2v-16.5c0-.2-.2-.3-.4-.2l-9,5.7c0,0-.1.1-.1.2v16.5c0,.2.2.3.4.2Z"/>
      <ellipse class="cls-4" cx="165.9" cy="152.5" rx="2" ry="4.7"/>
      <circle class="cls-8" cx="114.4" cy="156.7" r="13.7"/>
      <path class="cls-3" d="m89.8,184.4l-11.6-20.2,28.4-16.4c5.6-3.2,12.7-1.3,15.9,4.3h0c3.2,5.6,1.3,12.7-4.3,15.9l-28.4,16.4Z"/>
      <g>
        <path class="cls-3" d="m71.6,51.9h15.5c2.2,0,3.9,1.7,3.9,3.9v137.7h-23V55.6c0-2,1.6-3.6,3.6-3.6Z" transform="translate(158.8 245.5) rotate(180)"/>
        <path class="cls-3" d="m79.8,56.7c2.1,0,4.2-.5,6.2-1.3s4.9-2.1,4.9-4.4l-5.4-56.2h-11.3s-6.2,55.9-6.2,56c-.2,1.9,3.2,3.5,4.6,4.2,2,1,4.3,1.6,6.6,1.6.2,0,.5,0,.7,0Z"/>
      </g>
      <g>
        <circle class="cls-10" cx="98.3" cy="75.6" r="2.8"/>
        <circle class="cls-10" cx="104.7" cy="71.8" r="2.8"/>
        <circle class="cls-10" cx="111.1" cy="68" r="2.8"/>
        <circle class="cls-10" cx="117.5" cy="64.3" r="2.8"/>
        <circle class="cls-10" cx="123.9" cy="60.5" r="2.8"/>
        <circle class="cls-10" cx="130.3" cy="56.8" r="2.8"/>
        <circle class="cls-10" cx="143" cy="49.3" r="2.8"/>
        <circle class="cls-10" cx="136.6" cy="53" r="2.8"/>
      </g>
    </g>
    <g>
      <polygon class="cls-5" points="239 169.6 192.6 169.6 192.6 263 252.6 263 252.6 183.3 239 169.6"/>
      <rect class="cls-1" x="220.6" y="202.8" width="6.9" height="16.3"/>
      <path class="cls-1" d="m230.7,202.8h5.1c4.1,0,7.4,3.3,7.5,7.3h-12.6v-7.3Z"/>
      <rect class="cls-1" x="230.7" y="213.4" width="12.6" height="5.7"/>
      <path class="cls-1" d="m209.5,202.8h7.9v19.5h26v16.8h-41.4v-28.7c0-4.2,3.4-7.5,7.5-7.5Z"/>
      <rect class="cls-1" x="224.2" y="242.3" width="8.9" height="13.7"/>
      <rect class="cls-1" x="212.1" y="242.3" width="8.9" height="13.7"/>
      <path class="cls-1" d="m201.9,248.4v-6.1h7v13.6c-3.9-.3-7-3.5-7-7.5Z"/>
      <path class="cls-1" d="m236.4,255.9v-13.6h7v6.1c0,4-3.1,7.2-7,7.5Z"/>
    </g>
    <path class="cls-13" d="m48.4,162.7l10.4,15.5c.7,1.1,0,2.5-1.4,2.5h-20.8c-1.3,0-2.1-1.5-1.4-2.5l10.4-15.5c.6-1,2.1-1,2.7,0Z"/>
    <rect class="cls-14" x="45.1" y="178.4" width="3.8" height="58" rx=".6" ry=".6"/>
    <rect class="cls-14" x="111.8" y="166.5" width="3.8" height="135.9" rx=".6" ry=".6" transform="translate(-120.8 348.2) rotate(-90)"/>
  </g>
  <g>
    <rect class="cls-6" x="3.4" y="3.2" width="276.9" height="276.9" rx="6.5" ry="6.5"/>
    <path class="cls-10" d="m3.4,243.1h46.8c2.6,0,4.7,2.1,4.7,4.7v32.3H9.3c-3.2,0-5.8-2.6-5.8-5.8v-31.1h0Z"/>
    <path class="cls-9" d="m24.3,268.5h4v-12.8h-3.2v-1.4c1.6-.3,2.7-.7,3.7-1.3h1.7v15.6h3.6v1.9h-9.8v-1.9Z"/>
  </g>
  <g class="cls-17">
    <polygon class="cls-2" points="525.5 49.5 376.6 141.9 196.8 33.5 352.9 -56 525.5 49.5"/>
    <polygon class="cls-2" points="376.3 141.7 385.6 156.2 384.7 205.1 195.5 91.5 196.4 33.6 376.3 141.7"/>
    <polygon class="cls-8" points="300.5 144.8 202.8 86.4 202.9 48.3 300.6 106.6 300.5 144.8"/>
    <g>
      <polygon class="cls-10" points="271.7 95.5 271.6 123 252.9 111.9 253 84.4 255.1 85.6 255.1 84.4 257 85.5 257 84.4 267.7 90.8 267.7 91.9 269.5 93 269.5 94.3 271.7 95.5"/>
      <polygon class="cls-9" points="269.7 101.3 254.6 111 269.7 119.3 269.7 101.3"/>
    </g>
    <g>
      <polygon class="cls-10" points="226.1 67.1 226 94.6 207.4 83.4 207.5 55.9 209.6 57.2 209.6 55.9 211.5 57 211.5 55.9 222.2 62.3 222.2 63.4 224 64.5 224 65.8 226.1 67.1"/>
      <polygon class="cls-9" points="224.2 72.9 209 82.5 224.2 90.8 224.2 72.9"/>
    </g>
    <g>
      <polygon class="cls-10" points="248.9 81.5 248.8 109 230.1 97.8 230.2 70.3 232.4 71.6 232.4 70.3 234.2 71.4 234.2 70.3 244.9 76.7 244.9 77.8 246.8 78.9 246.8 80.2 248.9 81.5"/>
      <polygon class="cls-9" points="246.9 87.3 231.8 97 247 105.3 246.9 87.3"/>
    </g>
    <g>
      <polygon class="cls-10" points="294 108.8 294 136.3 275.3 125.1 275.4 97.6 277.5 98.9 277.5 97.6 279.4 98.7 279.4 97.6 290.1 104 290.1 105.1 291.9 106.2 291.9 107.5 294 108.8"/>
      <polygon class="cls-9" points="292.1 114.6 277 124.3 292.1 132.5 292.1 114.6"/>
    </g>
  </g>
</svg>