<?xml version="1.0" encoding="UTF-8"?>
<svg id="Layer_1" data-name="Layer 1" xmlns="http://www.w3.org/2000/svg" xmlns:xlink="http://www.w3.org/1999/xlink" viewBox="0 0 283.5 283.5">
  <defs>
    <style>
      .cls-1 {
        stroke-width: .6px;
      }

      .cls-1, .cls-2, .cls-3, .cls-4, .cls-5, .cls-6, .cls-7, .cls-8, .cls-9, .cls-10, .cls-11, .cls-12, .cls-13 {
        stroke-miterlimit: 10;
      }

      .cls-1, .cls-2, .cls-3, .cls-4, .cls-7, .cls-8, .cls-9, .cls-10, .cls-11, .cls-12, .cls-13 {
        stroke: #231f20;
      }

      .cls-1, .cls-2, .cls-7, .cls-12, .cls-14 {
        fill: #231f20;
      }

      .cls-2, .cls-13 {
        stroke-width: .6px;
      }

      .cls-3 {
        stroke-width: 2.6px;
      }

      .cls-3, .cls-4, .cls-5, .cls-6, .cls-10, .cls-15, .cls-13 {
        fill: #fff;
      }

      .cls-4 {
        stroke-width: 1.2px;
      }

      .cls-16 {
        clip-path: url(#clippath);
      }

      .cls-17, .cls-8, .cls-9, .cls-11 {
        fill: none;
      }

      .cls-17, .cls-18, .cls-14, .cls-19, .cls-15, .cls-20 {
        stroke-width: 0px;
      }

      .cls-5 {
        stroke: #221f1f;
      }

      .cls-5, .cls-6 {
        stroke-width: .6px;
      }

      .cls-6 {
        stroke: #010101;
      }

      .cls-7 {
        stroke-width: 1px;
      }

      .cls-8 {
        stroke-width: 2.6px;
      }

      .cls-21 {
        clip-path: url(#clippath-2);
      }

      .cls-9 {
        stroke-width: 5.1px;
      }

      .cls-10 {
        stroke-width: 2.2px;
      }

      .cls-11 {
        stroke-width: 2.9px;
      }

      .cls-12 {
        stroke-width: .9px;
      }

      .cls-18 {
        fill: #1c75bc;
      }

      .cls-19 {
        fill: #a7a9ac;
      }

      .cls-20 {
        fill: #f6c36c;
      }
    </style>
    <clipPath id="clippath">
      <rect class="cls-17" x="-319.9" y="3.3" width="276.9" height="276.9" rx="6.5" ry="6.5"/>
    </clipPath>
    <clipPath id="clippath-2">
      <rect class="cls-17" x="319.7" y="2.5" width="278.3" height="278.3" rx="6.5" ry="6.5"/>
    </clipPath>
  </defs>
  <g class="cls-16">
    <path class="cls-10" d="m8,269.4h9.5c1.2,0,2.2,1,2.2,2.2v74.4H5.8v-74.4c0-1.2,1-2.2,2.2-2.2Z" transform="translate(289.1 443.9) rotate(118.6)"/>
  </g>
  <rect class="cls-3" x="2.7" y="2.3" width="278.5" height="278.6" rx="6.5" ry="6.5"/>
  <rect class="cls-3" x="2.7" y="2.3" width="278.5" height="278.6" rx="6.5" ry="6.5"/>
  <g>
    <path class="cls-11" d="m141.4,214.8L8.6,272.7c-2.6,1.1-5.5-.8-5.5-3.6L2.2,21.2c0-10.5,8.4-19,18.9-19l120.3-.7v213.3Z"/>
    <line class="cls-11" x1="72.3" y1="1.5" x2="72.3" y2="245.7"/>
    <line class="cls-11" x1="3.7" y1="145.5" x2="140.8" y2="67.8"/>
  </g>
  <g>
    <ellipse class="cls-4" cx="179.7" cy="54.8" rx="25.9" ry="25.9"/>
    <g>
      <rect class="cls-1" x="170.7" y="56.1" width="4.6" height="4.6"/>
      <rect class="cls-12" x="177.3" y="52.2" width="4.6" height="8.4"/>
      <rect class="cls-7" x="184.1" y="48.9" width="4.6" height="11.7"/>
    </g>
  </g>
  <rect class="cls-17" x="2.1" y="1.5" width="278.5" height="278.6" rx="6.5" ry="6.5"/>
  <g>
    <g>
      <path class="cls-6" d="m239.8,101.4l-1.8,81.3c.6,0,1.2,0,1.8,0,1.2,0,2.4-.1,3.7-.3-.7-27-2-54-2.3-81,0-.6-.3-1-.7-1s-.7.4-.7,1Z"/>
      <path class="cls-6" d="m233.3,89.9v91.9c.5.1.9.3,1.4.4v-92.3c0-2.5,2-4.5,4.5-4.5h-1.4c-2.5,0-4.5,2-4.5,4.5Z"/>
      <path class="cls-6" d="m234.7,89.9v92.3c1.1.3,2.2.4,3.4.5l1.8-81.3c0-.6.3-1,.7-1s.7.5.7,1c.2,27.1,1.6,54,2.3,81,.5,0,1-.2,1.5-.3.5-.1.9-.2,1.4-.4v-91.9c0-2.5-2-4.5-4.5-4.5h-2.7c-2.5,0-4.5,2-4.5,4.5Z"/>
      <path class="cls-6" d="m238.1,182.7c.6,0,1.2,0,1.8,0,1.2,0,2.4-.1,3.7-.3-.7-27-2-54-2.3-81,0-.6-.3-1-.7-1s-.7.4-.7,1l-1.8,81.3Z"/>
      <path class="cls-6" d="m238.1,182.7c.6,0,1.2,0,1.8,0,1.2,0,2.4-.1,3.7-.3-.7-27-2-54-2.3-81,0-.6-.3-1-.7-1s-.7.4-.7,1l-1.8,81.3Z"/>
    </g>
    <path class="cls-5" d="m233.3,181.8v24.8c0,1.7,1.4,3,3.1,3h7.1c1.6,0,2.9-1.3,2.9-2.8v-25c-.5.1-.9.3-1.4.4-.5.1-1,.2-1.5.3-1.2.2-2.4.3-3.7.3s-1.2,0-1.8,0c-1.1,0-2.3-.3-3.4-.5-.5-.1-.9-.2-1.4-.4Z"/>
    <g>
      <path class="cls-6" d="m214.1,88.1l-1.8,81.3c.6,0,1.2,0,1.8,0,1.2,0,2.4-.1,3.7-.3-.7-27-2-54-2.3-81,0-.6-.3-1-.7-1s-.7.4-.7,1Z"/>
      <path class="cls-6" d="m207.6,76.6v91.9c.5.1.9.3,1.4.4v-92.3c0-2.5,2-4.5,4.5-4.5h-1.4c-2.5,0-4.5,2-4.5,4.5Z"/>
      <path class="cls-6" d="m209,76.6v92.3c1.1.3,2.2.4,3.4.5l1.8-81.3c0-.6.3-1,.7-1s.7.5.7,1c.2,27.1,1.6,54,2.3,81,.5,0,1-.2,1.5-.3.5-.1.9-.2,1.4-.4v-91.9c0-2.5-2-4.5-4.5-4.5h-2.7c-2.5,0-4.5,2-4.5,4.5Z"/>
      <path class="cls-6" d="m212.3,169.4c.6,0,1.2,0,1.8,0,1.2,0,2.4-.1,3.7-.3-.7-27-2-54-2.3-81,0-.6-.3-1-.7-1s-.7.4-.7,1l-1.8,81.3Z"/>
      <path class="cls-6" d="m212.3,169.4c.6,0,1.2,0,1.8,0,1.2,0,2.4-.1,3.7-.3-.7-27-2-54-2.3-81,0-.6-.3-1-.7-1s-.7.4-.7,1l-1.8,81.3Z"/>
    </g>
    <path class="cls-5" d="m207.6,168.5v24.8c0,1.7,1.4,3,3.1,3h7.1c1.6,0,2.9-1.3,2.9-2.8v-25c-.5.1-.9.3-1.4.4-.5.1-1,.2-1.5.3-1.2.2-2.4.3-3.7.3s-1.2,0-1.8,0c-1.1,0-2.3-.3-3.4-.5-.5-.1-.9-.2-1.4-.4Z"/>
    <path class="cls-13" d="m133.8,237l44.2,28.5v-14.5l-43.5-28c-.3-.2-.7,0-.7.4v13.7Z"/>
    <circle class="cls-19" cx="141.5" cy="236.8" r="5.8"/>
    <path class="cls-13" d="m130.3,249.2l-5.1-8.9,12.5-7.2c2.5-1.4,5.6-.6,7,1.9h0c1.4,2.5.6,5.6-1.9,7l-12.5,7.2Z"/>
    <path class="cls-13" d="m224.5,215.1l-2-3.5c-.9-1.5-.4-3.4,1.1-4.3l9.8-5.7c2.5-1.4,5.6-.6,7,1.9h0c1.4,2.5.6,5.6-1.9,7l-9.8,5.7c-1.5.9-3.4.4-4.3-1.1Z"/>
    <path class="cls-13" d="m200.8,204.2l-5.1-8.9,12.5-7.2c2.5-1.4,5.6-.6,7,1.9h0c1.4,2.5.6,5.6-1.9,7l-12.5,7.2Z"/>
    <polygon class="cls-13" points="136.6 219.2 180.8 246.7 234.2 214.4 187.8 187.9 136.6 219.2"/>
    <path class="cls-13" d="m134.7,223.5l43.3,27.4,2.8-4.4-43.3-27.4c-.5-.3-1.1-.2-1.4.3l-1.7,2.7c-.3.5-.2,1.1.3,1.4Z"/>
    <polygon class="cls-13" points="180.9 246.6 178.1 250.9 178.4 265.4 234.6 231.7 234.3 214.5 180.9 246.6"/>
    <polygon class="cls-20" points="203.4 247.5 232.4 230.2 232.3 218.8 203.4 236.2 203.4 247.5"/>
    <g>
      <polygon class="cls-14" points="211.9 232.9 212 241 217.5 237.7 217.5 229.6 216.9 229.9 216.9 229.6 216.3 229.9 216.3 229.6 213.1 231.5 213.1 231.8 212.6 232.1 212.6 232.5 211.9 232.9"/>
      <polygon class="cls-15" points="212.5 234.6 217 237.5 212.5 239.9 212.5 234.6"/>
    </g>
    <g>
      <polygon class="cls-14" points="225.5 224.4 225.5 232.6 231 229.3 231 221.1 230.4 221.5 230.4 221.1 229.8 221.4 229.8 221.1 226.6 223 226.6 223.3 226.1 223.7 226.1 224 225.5 224.4"/>
      <polygon class="cls-15" points="226 226.1 230.5 229 226 231.5 226 226.1"/>
    </g>
    <g>
      <polygon class="cls-14" points="218.7 228.7 218.7 236.9 224.3 233.6 224.2 225.4 223.6 225.8 223.6 225.4 223.1 225.7 223.1 225.4 219.9 227.3 219.9 227.6 219.3 227.9 219.3 228.3 218.7 228.7"/>
      <polygon class="cls-15" points="219.3 230.4 223.8 233.3 219.3 235.8 219.3 230.4"/>
    </g>
    <g>
      <polygon class="cls-14" points="205.3 236.8 205.3 245 210.9 241.7 210.8 233.5 210.2 233.9 210.2 233.5 209.7 233.8 209.7 233.5 206.5 235.4 206.5 235.7 205.9 236 205.9 236.4 205.3 236.8"/>
      <polygon class="cls-15" points="205.9 238.5 210.4 241.4 205.9 243.9 205.9 238.5"/>
    </g>
    <g>
      <polygon class="cls-18" points="193.8 253.2 201.7 248.4 201.7 237.1 193.8 241.6 193.8 253.2"/>
      <g>
        <polygon class="cls-14" points="195 242.8 195 251 200.5 247.7 200.5 239.5 199.9 239.9 199.9 239.5 199.3 239.8 199.3 239.5 196.1 241.4 196.1 241.7 195.6 242 195.6 242.4 195 242.8"/>
        <polygon class="cls-15" points="195.5 244.5 200 247.4 195.5 249.8 195.5 244.5"/>
      </g>
    </g>
    <path class="cls-2" d="m182.5,258.7l4.2-2.6s0,0,0,0v-7.6c0,0,0-.1-.2,0l-4.2,2.6s0,0,0,0v7.6c0,0,0,.1.2,0Z"/>
    <ellipse class="cls-2" cx="190.2" cy="250.3" rx=".9" ry="2.1"/>
    <circle class="cls-20" cx="166.5" cy="252.3" r="6.3"/>
    <path class="cls-13" d="m155.2,265l-5.3-9.3,13-7.5c2.6-1.5,5.8-.6,7.3,2h0c1.5,2.6.6,5.8-2,7.3l-13,7.5Z"/>
    <g>
      <circle class="cls-14" cx="159.1" cy="215" r="1.3"/>
      <circle class="cls-14" cx="162.1" cy="213.2" r="1.3"/>
      <circle class="cls-14" cx="165" cy="211.5" r="1.3"/>
      <circle class="cls-14" cx="168" cy="209.8" r="1.3"/>
      <circle class="cls-14" cx="170.9" cy="208" r="1.3"/>
      <circle class="cls-14" cx="173.8" cy="206.3" r="1.3"/>
      <circle class="cls-14" cx="179.7" cy="202.9" r="1.3"/>
      <circle class="cls-14" cx="176.8" cy="204.6" r="1.3"/>
    </g>
    <g>
      <path class="cls-6" d="m154.6,156.7l-1.8,81.3c.6,0,1.2,0,1.8,0,1.2,0,2.4-.1,3.7-.3-.7-27-2-54-2.3-81,0-.6-.3-1-.7-1s-.7.4-.7,1Z"/>
      <path class="cls-6" d="m148,145.2v91.9c.5.1.9.3,1.4.4v-92.3c0-2.5,2-4.5,4.5-4.5h-1.4c-2.5,0-4.5,2-4.5,4.5Z"/>
      <path class="cls-6" d="m149.4,145.2v92.3c1.1.3,2.2.4,3.4.5l1.8-81.3c0-.6.3-1,.7-1s.7.5.7,1c.2,27.1,1.6,54,2.3,81,.5,0,1-.2,1.5-.3.5-.1.9-.2,1.4-.4v-91.9c0-2.5-2-4.5-4.5-4.5h-2.7c-2.5,0-4.5,2-4.5,4.5Z"/>
      <path class="cls-6" d="m152.8,238c.6,0,1.2,0,1.8,0,1.2,0,2.4-.1,3.7-.3-.7-27-2-54-2.3-81,0-.6-.3-1-.7-1s-.7.4-.7,1l-1.8,81.3Z"/>
      <path class="cls-6" d="m152.8,238c.6,0,1.2,0,1.8,0,1.2,0,2.4-.1,3.7-.3-.7-27-2-54-2.3-81,0-.6-.3-1-.7-1s-.7.4-.7,1l-1.8,81.3Z"/>
    </g>
    <path class="cls-5" d="m148,237.1v24.8c0,1.7,1.4,3,3.1,3h7.1c1.6,0,2.9-1.3,2.9-2.8v-25c-.5.1-.9.3-1.4.4-.5.1-1,.2-1.5.3-1.2.2-2.4.3-3.7.3s-1.2,0-1.8,0c-1.1,0-2.3-.3-3.4-.5-.5-.1-.9-.2-1.4-.4Z"/>
    <g>
      <g>
        <path class="cls-6" d="m129.4,141.1l-1.8,81.3c.6,0,1.2,0,1.8,0,1.2,0,2.4-.1,3.7-.3-.7-27-2-54-2.3-81,0-.6-.3-1-.7-1s-.7.4-.7,1Z"/>
        <path class="cls-6" d="m122.8,129.6v91.9c.5.1.9.3,1.4.4v-92.3c0-2.5,2-4.5,4.5-4.5h-1.4c-2.5,0-4.5,2-4.5,4.5Z"/>
        <path class="cls-6" d="m124.2,129.6v92.3c1.1.3,2.2.4,3.4.5l1.8-81.3c0-.6.3-1,.7-1s.7.5.7,1c.2,27.1,1.6,54,2.3,81,.5,0,1-.2,1.5-.3.5-.1.9-.2,1.4-.4v-91.9c0-2.5-2-4.5-4.5-4.5h-2.7c-2.5,0-4.5,2-4.5,4.5Z"/>
        <path class="cls-6" d="m127.6,222.4c.6,0,1.2,0,1.8,0,1.2,0,2.4-.1,3.7-.3-.7-27-2-54-2.3-81,0-.6-.3-1-.7-1s-.7.4-.7,1l-1.8,81.3Z"/>
        <path class="cls-6" d="m127.6,222.4c.6,0,1.2,0,1.8,0,1.2,0,2.4-.1,3.7-.3-.7-27-2-54-2.3-81,0-.6-.3-1-.7-1s-.7.4-.7,1l-1.8,81.3Z"/>
      </g>
      <path class="cls-5" d="m122.8,221.5v24.8c0,1.7,1.4,3,3.1,3h7.1c1.6,0,2.9-1.3,2.9-2.8v-25c-.5.1-.9.3-1.4.4-.5.1-1,.2-1.5.3-1.2.2-2.4.3-3.7.3s-1.2,0-1.8,0c-1.1,0-2.3-.3-3.4-.5-.5-.1-.9-.2-1.4-.4Z"/>
    </g>
  </g>
  <g>
    <path class="cls-14" d="m2.7,243.7h47.1c2.6,0,4.7,2.1,4.7,4.7v32.5H8.5c-3.2,0-5.8-2.6-5.8-5.8v-31.3h0Z"/>
    <path class="cls-15" d="m22.9,268.7l1.1-1.4c1,1.1,2.4,2,4.4,2s3.6-1.2,3.6-3.1-1.4-3.4-5.5-3.4v-1.7c3.6,0,4.9-1.4,4.9-3.2s-1.1-2.7-3-2.7-2.6.7-3.7,1.7l-1.2-1.4c1.3-1.2,2.9-2.1,4.9-2.1,3,0,5.1,1.6,5.1,4.4s-1.3,3.4-3.1,4.1h0c2.1.6,3.7,2.1,3.7,4.5s-2.5,4.9-5.7,4.9-4.5-1.2-5.6-2.4Z"/>
    <rect class="cls-9" x="2.7" y="2.3" width="278.5" height="278.6" rx="6.5" ry="6.5"/>
  </g>
  <g class="cls-21">
    <path class="cls-8" d="m179.6,237.9c6.5-14.6,22.8-23.2,38.7-24.3,16-1.1,31.7,4.1,46.3,10.8,24.9,11.4,47.9,27.3,74.2,34.7,26.3,7.5,58.4,4.3,75.5-17"/>
  </g>
</svg>