<?xml version="1.0" encoding="UTF-8"?>
<svg id="Layer_1" data-name="Layer 1" xmlns="http://www.w3.org/2000/svg" viewBox="0 0 64.3 165.7">
  <defs>
    <style>
      .cls-1 {
        fill: #f6c36c;
      }

      .cls-1, .cls-2, .cls-3 {
        stroke: #231f20;
      }

      .cls-1, .cls-2, .cls-3, .cls-4, .cls-5 {
        stroke-miterlimit: 10;
      }

      .cls-2 {
        fill: #fedf57;
      }

      .cls-3, .cls-4, .cls-5 {
        fill: #fff;
      }

      .cls-4 {
        stroke: #221f1f;
      }

      .cls-5 {
        stroke: #010101;
      }
    </style>
  </defs>
  <g>
    <g>
      <path class="cls-5" d="m7.6,33.9l1.9,87.7c-.6,0-1.3,0-1.9,0-1.3,0-2.6-.1-4-.3.7-29.1,2.2-58.2,2.4-87.4,0-.6.4-1.1.8-1.1s.7.5.8,1.1Z"/>
      <path class="cls-5" d="m14.6,21.5v99.1c-.5.2-1,.3-1.5.4V21.5c0-2.7-2.2-4.8-4.8-4.8h1.5c2.7,0,4.8,2.2,4.8,4.8Z"/>
      <path class="cls-5" d="m13.1,21.5v99.5c-1.2.3-2.4.5-3.6.6l-1.9-87.7c0-.6-.4-1.1-.8-1.1s-.8.5-.8,1.1c-.2,29.2-1.7,58.3-2.4,87.4-.5,0-1.1-.2-1.6-.3-.5-.1-1-.3-1.5-.4V21.5c0-2.7,2.2-4.8,4.9-4.8h2.9c2.7,0,4.8,2.2,4.8,4.8Z"/>
      <path class="cls-5" d="m9.5,121.6c-.6,0-1.3,0-1.9,0-1.3,0-2.6-.1-4-.3.7-29.1,2.2-58.2,2.4-87.4,0-.6.4-1.1.8-1.1s.7.5.8,1.1l1.9,87.7Z"/>
      <path class="cls-5" d="m9.5,121.6c-.6,0-1.3,0-1.9,0-1.3,0-2.6-.1-4-.3.7-29.1,2.2-58.2,2.4-87.4,0-.6.4-1.1.8-1.1s.7.5.8,1.1l1.9,87.7Z"/>
    </g>
    <path class="cls-4" d="m14.6,120.6v26.8c0,1.8-1.5,3.2-3.3,3.2H3.6c-1.7,0-3.1-1.4-3.1-3v-27c.5.2,1,.3,1.5.4.5.1,1.1.2,1.6.3,1.3.2,2.6.3,4,.3s1.3,0,1.9,0c1.2,0,2.4-.3,3.6-.6.5-.1,1-.3,1.5-.4Z"/>
  </g>
  <g>
    <g>
      <path class="cls-5" d="m34.7,17.7l1.9,87.7c-.6,0-1.3,0-1.9,0-1.3,0-2.6-.1-4-.3.7-29.1,2.2-58.2,2.4-87.4,0-.6.4-1.1.8-1.1s.7.5.8,1.1Z"/>
      <path class="cls-5" d="m41.8,5.3v99.1c-.5.2-1,.3-1.5.4V5.3c0-2.7-2.2-4.8-4.8-4.8h1.5c2.7,0,4.8,2.2,4.8,4.8Z"/>
      <path class="cls-5" d="m40.3,5.3v99.5c-1.2.3-2.4.5-3.6.6l-1.9-87.7c0-.6-.4-1.1-.8-1.1s-.8.5-.8,1.1c-.2,29.2-1.7,58.3-2.4,87.4-.5,0-1.1-.2-1.6-.3-.5-.1-1-.3-1.5-.4V5.3c0-2.7,2.2-4.8,4.9-4.8h2.9c2.7,0,4.8,2.2,4.8,4.8Z"/>
      <path class="cls-5" d="m36.7,105.4c-.6,0-1.3,0-1.9,0-1.3,0-2.6-.1-4-.3.7-29.1,2.2-58.2,2.4-87.4,0-.6.4-1.1.8-1.1s.7.5.8,1.1l1.9,87.7Z"/>
      <path class="cls-5" d="m36.7,105.4c-.6,0-1.3,0-1.9,0-1.3,0-2.6-.1-4-.3.7-29.1,2.2-58.2,2.4-87.4,0-.6.4-1.1.8-1.1s.7.5.8,1.1l1.9,87.7Z"/>
    </g>
    <path class="cls-4" d="m41.8,104.4v26.8c0,1.8-1.5,3.2-3.3,3.2h-7.7c-1.7,0-3.1-1.4-3.1-3v-27c.5.2,1,.3,1.5.4.5.1,1.1.2,1.6.3,1.3.2,2.6.3,4,.3s1.3,0,1.9,0c1.2,0,2.4-.3,3.6-.6.5-.1,1-.3,1.5-.4Z"/>
  </g>
  <path class="cls-3" d="m45.2,139.4c0,2.1,1,3.9,2.5,5.1l-11.4-6.6c-.7-.4-1.3-.9-1.7-1.5-1-1.2-1.5-2.6-1.5-4.1s.3-2.2.9-3.2c1.5-2.7,4.7-3.8,7.5-2.9.5.1.9.3,1.3.6l11.4,6.6c-.7-.3-1.6-.5-2.4-.5-3.6,0-6.5,2.9-6.5,6.5Z"/>
  <path class="cls-3" d="m62.7,142c0,3.6-2.9,6.5-6.5,6.5s-3.1-.6-4.2-1.5h0s-2.6-1.5-2.6-1.5l-1.7-1c-1.5-1.2-2.5-3-2.5-5.1,0-3.6,2.9-6.5,6.5-6.5s1.7.2,2.4.5l1.7,1,2.6,1.5h0c2.5.9,4.3,3.3,4.3,6.2Z"/>
  <path class="cls-1" d="m49.4,145.5c-.6-.2-1.2-.6-1.7-1l1.7,1Z"/>
  <path class="cls-1" d="m55.8,134.3l-1.7-1c.6.2,1.2.6,1.7,1Z"/>
  <circle class="cls-3" cx="57.2" cy="142.6" r="6.5"/>
  <circle class="cls-2" cx="40.8" cy="132.9" r="3.2"/>
  <path class="cls-3" d="m19,155.5c0,2.1,1,3.9,2.5,5.1l-11.4-6.6c-.7-.4-1.3-.9-1.7-1.5-1-1.2-1.5-2.6-1.5-4.1s.3-2.2.9-3.2c1.5-2.7,4.7-3.8,7.5-2.9.5.1.9.3,1.3.6l11.4,6.6c-.7-.3-1.6-.5-2.4-.5-3.6,0-6.5,2.9-6.5,6.5Z"/>
  <path class="cls-3" d="m36.5,158.1c0,3.6-2.9,6.5-6.5,6.5s-3.1-.6-4.2-1.5h0s-2.6-1.5-2.6-1.5l-1.7-1c-1.5-1.2-2.5-3-2.5-5.1,0-3.6,2.9-6.5,6.5-6.5s1.7.2,2.4.5l1.7,1,2.6,1.5h0c2.5.9,4.3,3.3,4.3,6.2Z"/>
  <path class="cls-1" d="m23.2,161.6c-.6-.2-1.2-.6-1.7-1l1.7,1Z"/>
  <path class="cls-1" d="m29.6,150.4l-1.7-1c.6.2,1.2.6,1.7,1Z"/>
  <circle class="cls-3" cx="31" cy="158.7" r="6.5"/>
  <circle class="cls-2" cx="14.6" cy="149" r="3.2"/>
</svg>