<?xml version="1.0" encoding="UTF-8"?>
<svg id="Layer_1" data-name="Layer 1" xmlns="http://www.w3.org/2000/svg" xmlns:xlink="http://www.w3.org/1999/xlink" viewBox="0 0 283.5 283.5">
  <defs>
    <style>
      .cls-1 {
        stroke-width: 1.2px;
      }

      .cls-1, .cls-2, .cls-3, .cls-4, .cls-5, .cls-6, .cls-7 {
        stroke: #231f20;
        stroke-miterlimit: 10;
      }

      .cls-1, .cls-8 {
        fill: #f6c36c;
      }

      .cls-2 {
        stroke-width: 2.5px;
      }

      .cls-2, .cls-3, .cls-5, .cls-9 {
        fill: #fff;
      }

      .cls-3, .cls-4, .cls-7 {
        stroke-width: 2.5px;
      }

      .cls-4, .cls-10 {
        fill: #231f20;
      }

      .cls-11 {
        clip-path: url(#clippath);
      }

      .cls-12, .cls-6, .cls-7 {
        fill: none;
      }

      .cls-12, .cls-13, .cls-14, .cls-15, .cls-10, .cls-16, .cls-9, .cls-8 {
        stroke-width: 0px;
      }

      .cls-5 {
        stroke-width: 2.7px;
      }

      .cls-6 {
        stroke-width: 5.1px;
      }

      .cls-17 {
        clip-path: url(#clippath-1);
      }

      .cls-13 {
        fill-rule: evenodd;
      }

      .cls-13, .cls-14 {
        fill: #3d4042;
      }

      .cls-15 {
        fill: #1c75bc;
      }

      .cls-16 {
        fill: #a7a9ac;
      }
    </style>
    <clipPath id="clippath">
      <rect class="cls-12" x="1.9" y="3.2" width="276.9" height="276.9" rx="6.5" ry="6.5"/>
    </clipPath>
    <clipPath id="clippath-1">
      <rect class="cls-12" x="334" y="3.2" width="276.9" height="276.9" rx="6.5" ry="6.5"/>
    </clipPath>
  </defs>
  <g>
    <g class="cls-11">
      <rect class="cls-3" x="1.9" y="3.2" width="276.9" height="276.9" rx="6.5" ry="6.5"/>
      <g>
        <path class="cls-3" d="m275.5-63.8h14.6c2.2,0,3.9,1.7,3.9,3.9V72.4h-22.1V-60.2c0-2,1.6-3.6,3.6-3.6Z" transform="translate(565.8 8.6) rotate(180)"/>
        <path class="cls-3" d="m251.4,89.6l-11.2-19.4,33.2-19.1c2.1-1.2,4.8-.5,6,1.6l6.8,11.8c1.2,2.1.5,4.8-1.6,6l-33.2,19.1Z"/>
        <g>
          <path class="cls-3" d="m219.6-97.6h14.6c2.2,0,3.9,1.7,3.9,3.9V38.5h-22.1V-94c0-2,1.6-3.6,3.6-3.6Z" transform="translate(454 -59.1) rotate(180)"/>
          <path class="cls-3" d="m195.5,55.8l-11.2-19.4,33.2-19.1c2.1-1.2,4.8-.5,6,1.6l6.8,11.8c1.2,2.1.5,4.8-1.6,6l-33.2,19.1Z"/>
        </g>
        <path class="cls-3" d="m44.2,123.4l96.2,62v-31.6l-94.6-61c-.7-.4-1.6,0-1.6.9v29.7Z"/>
        <circle class="cls-16" cx="59.4" cy="123.6" r="12.7"/>
        <path class="cls-3" d="m37.2,151.3l-11.2-19.4,33.2-19.1c2.1-1.2,4.8-.5,6,1.6l6.8,11.8c1.2,2.1.5,4.8-1.6,6l-33.2,19.1Z"/>
        <g>
          <path class="cls-3" d="m21.8,21.6h14.6c2.2,0,3.9,1.7,3.9,3.9v132.3h-22.1V25.2c0-2,1.6-3.6,3.6-3.6Z" transform="translate(58.3 179.3) rotate(180)"/>
          <path class="cls-3" d="m29.6,26.2c2,0,4-.4,5.9-1.2s4.7-2,4.7-4.2l-5.1-54h-10.9s-6,53.8-6,53.8c-.2,1.8,3.1,3.4,4.4,4.1,2,1,4.1,1.5,6.3,1.6.2,0,.5,0,.7,0Z"/>
        </g>
        <polygon class="cls-3" points="50.1 84.7 146.3 144.4 262.5 74.4 161.6 16.6 50.1 84.7"/>
        <path class="cls-3" d="m45.5,93.7l94.9,60.1,6.1-9.6-94.9-60.1c-.7-.4-1.6-.2-2,.4l-4.5,7.2c-.4.7-.2,1.6.4,2Z"/>
        <line class="cls-7" x1="202.9" y1="206.6" x2="202.9" y2="205.7"/>
        <line class="cls-7" x1="202.6" y1="206.7" x2="202.9" y2="206.6"/>
        <polygon class="cls-3" points="146.5 144.3 140.5 153.6 141.1 185.3 263.3 111.9 262.8 74.5 146.5 144.3"/>
        <polygon class="cls-8" points="195.5 146.3 258.6 108.5 258.5 83.9 195.4 121.6 195.5 146.3"/>
        <g>
          <polygon class="cls-10" points="214.1 114.5 214.2 132.2 226.2 125 226.2 107.2 224.8 108.1 224.8 107.2 223.6 108 223.6 107.2 216.7 111.4 216.7 112.1 215.5 112.8 215.5 113.6 214.1 114.5"/>
          <polygon class="cls-9" points="215.4 118.2 225.2 124.5 215.4 129.8 215.4 118.2"/>
        </g>
        <g>
          <polygon class="cls-10" points="243.5 96.1 243.6 113.8 255.6 106.6 255.6 88.8 254.2 89.7 254.2 88.8 253 89.6 253 88.8 246.1 93 246.1 93.7 244.9 94.4 244.9 95.2 243.5 96.1"/>
          <polygon class="cls-9" points="244.8 99.8 254.6 106.1 244.8 111.4 244.8 99.8"/>
        </g>
        <g>
          <polygon class="cls-10" points="228.8 105.4 228.9 123.2 240.9 115.9 240.9 98.2 239.5 99 239.5 98.2 238.3 98.9 238.3 98.2 231.4 102.3 231.4 103 230.2 103.7 230.2 104.6 228.8 105.4"/>
          <polygon class="cls-9" points="230.1 109.1 239.9 115.4 230.1 120.7 230.1 109.1"/>
        </g>
        <g>
          <polygon class="cls-10" points="199.7 123 199.7 140.8 211.8 133.5 211.7 115.8 210.3 116.6 210.3 115.8 209.1 116.5 209.1 115.8 202.2 119.9 202.2 120.6 201 121.3 201 122.2 199.7 123"/>
          <polygon class="cls-9" points="200.9 126.8 210.7 133 200.9 138.4 200.9 126.8"/>
        </g>
        <g>
          <polygon class="cls-15" points="174.7 158.6 191.8 148.3 191.8 123.6 174.5 133.4 174.7 158.6"/>
          <g>
            <polygon class="cls-10" points="177.1 136 177.1 153.8 189.2 146.6 189.2 128.8 187.8 129.7 187.8 128.8 186.7 129.5 186.7 128.8 179.7 133 179.7 133.6 178.5 134.4 178.5 135.2 177.1 136"/>
            <polygon class="cls-9" points="178.4 139.8 188.2 146.1 178.3 151.4 178.4 139.8"/>
          </g>
        </g>
        <path class="cls-4" d="m150,170.5l9-5.7c0,0,.1-.1.1-.2v-16.5c0-.2-.2-.3-.4-.2l-9,5.7c0,0-.1.1-.1.2v16.5c0,.2.2.3.4.2Z"/>
        <ellipse class="cls-4" cx="166.8" cy="152.4" rx="2" ry="4.7"/>
        <circle class="cls-8" cx="115.3" cy="156.6" r="13.7"/>
        <path class="cls-3" d="m90.7,184.3l-11.6-20.2,34.5-19.9c2.2-1.3,5-.5,6.2,1.7l7.1,12.3c1.3,2.2.5,5-1.7,6.2l-34.5,19.9Z"/>
        <g>
          <path class="cls-3" d="m72.5,51.8h15.5c2.2,0,3.9,1.7,3.9,3.9v137.7h-23V55.5c0-2,1.6-3.6,3.6-3.6Z" transform="translate(160.7 245.3) rotate(180)"/>
          <path class="cls-3" d="m80.8,56.6c2.1,0,4.2-.5,6.2-1.3s4.9-2.1,4.9-4.4l-5.4-56.2h-11.3s-6.2,55.9-6.2,56c-.2,1.9,3.2,3.5,4.6,4.2,2,1,4.3,1.6,6.6,1.6.2,0,.5,0,.7,0Z"/>
        </g>
        <g>
          <circle class="cls-10" cx="99.2" cy="75.5" r="2.8"/>
          <circle class="cls-10" cx="105.6" cy="71.7" r="2.8"/>
          <circle class="cls-10" cx="112" cy="68" r="2.8"/>
          <circle class="cls-10" cx="118.4" cy="64.2" r="2.8"/>
          <circle class="cls-10" cx="124.8" cy="60.4" r="2.8"/>
          <circle class="cls-10" cx="131.2" cy="56.7" r="2.8"/>
          <circle class="cls-10" cx="144" cy="49.2" r="2.8"/>
          <circle class="cls-10" cx="137.6" cy="52.9" r="2.8"/>
        </g>
      </g>
      <g>
        <polygon class="cls-5" points="239.9 169.6 193.6 169.6 193.6 262.9 253.5 262.9 253.5 183.2 239.9 169.6"/>
        <rect class="cls-1" x="221.5" y="202.7" width="6.9" height="16.3"/>
        <path class="cls-1" d="m231.6,202.7h5.1c4.1,0,7.4,3.3,7.5,7.3h-12.6v-7.3Z"/>
        <rect class="cls-1" x="231.6" y="213.3" width="12.6" height="5.7"/>
        <path class="cls-1" d="m210.4,202.7h7.9v19.5h26v16.8h-41.4v-28.7c0-4.2,3.4-7.5,7.5-7.5Z"/>
        <rect class="cls-1" x="225.2" y="242.2" width="8.9" height="13.7"/>
        <rect class="cls-1" x="213.1" y="242.2" width="8.9" height="13.7"/>
        <path class="cls-1" d="m202.9,248.3v-6.1h7v13.6c-3.9-.3-7-3.5-7-7.5Z"/>
        <path class="cls-1" d="m237.3,255.8v-13.6h7v6.1c0,4-3.1,7.2-7,7.5Z"/>
      </g>
      <path class="cls-13" d="m49.3,162.6l10.4,15.5c.7,1.1,0,2.5-1.4,2.5h-20.8c-1.3,0-2.1-1.5-1.4-2.5l10.4-15.5c.6-1,2.1-1,2.7,0Z"/>
      <rect class="cls-14" x="46" y="178.3" width="3.8" height="58" rx=".6" ry=".6"/>
      <rect class="cls-14" x="112.7" y="166.4" width="3.8" height="135.9" rx=".6" ry=".6" transform="translate(-119.7 349.1) rotate(-90)"/>
    </g>
    <g>
      <rect class="cls-6" x="3.4" y="3.2" width="276.9" height="276.9" rx="6.5" ry="6.5"/>
      <path class="cls-10" d="m3.4,243.1h46.8c2.6,0,4.7,2.1,4.7,4.7v32.3H9.3c-3.2,0-5.8-2.6-5.8-5.8v-31.1h0Z"/>
      <path class="cls-9" d="m24.3,268.5h4v-12.8h-3.2v-1.4c1.6-.3,2.7-.7,3.7-1.3h1.7v15.6h3.6v1.9h-9.8v-1.9Z"/>
    </g>
  </g>
  <g class="cls-17">
    <polygon class="cls-2" points="525.5 49.5 376.6 141.9 196.8 33.5 352.9 -56 525.5 49.5"/>
    <polygon class="cls-2" points="376.3 141.7 385.6 156.2 384.7 205.1 195.5 91.5 196.4 33.6 376.3 141.7"/>
    <polygon class="cls-8" points="300.5 144.8 202.8 86.4 202.9 48.3 300.6 106.6 300.5 144.8"/>
    <g>
      <polygon class="cls-10" points="271.7 95.5 271.6 123 252.9 111.9 253 84.4 255.1 85.6 255.1 84.4 257 85.5 257 84.4 267.7 90.8 267.7 91.9 269.5 93 269.5 94.3 271.7 95.5"/>
      <polygon class="cls-9" points="269.7 101.3 254.6 111 269.7 119.3 269.7 101.3"/>
    </g>
    <g>
      <polygon class="cls-10" points="226.1 67.1 226 94.6 207.4 83.4 207.5 55.9 209.6 57.2 209.6 55.9 211.5 57 211.5 55.9 222.2 62.3 222.2 63.4 224 64.5 224 65.8 226.1 67.1"/>
      <polygon class="cls-9" points="224.2 72.9 209 82.5 224.2 90.8 224.2 72.9"/>
    </g>
    <g>
      <polygon class="cls-10" points="248.9 81.5 248.8 109 230.1 97.8 230.2 70.3 232.4 71.6 232.4 70.3 234.2 71.4 234.2 70.3 244.9 76.7 244.9 77.8 246.8 78.9 246.8 80.2 248.9 81.5"/>
      <polygon class="cls-9" points="246.9 87.3 231.8 97 247 105.3 246.9 87.3"/>
    </g>
    <g>
      <polygon class="cls-10" points="294 108.8 294 136.3 275.3 125.1 275.4 97.6 277.5 98.9 277.5 97.6 279.4 98.7 279.4 97.6 290.1 104 290.1 105.1 291.9 106.2 291.9 107.5 294 108.8"/>
      <polygon class="cls-9" points="292.1 114.6 277 124.3 292.1 132.5 292.1 114.6"/>
    </g>
  </g>
</svg>